<?xml version="1.0" encoding="UTF-8" standalone="no"?>
<!DOCTYPE svg PUBLIC "-//W3C//DTD SVG 20010904//EN"
              "http://www.w3.org/TR/2001/REC-SVG-20010904/DTD/svg10.dtd">

<svg xmlns="http://www.w3.org/2000/svg"
     width="7.11111in" height="7.11111in"
     viewBox="0 0 512 512">
  <path id="Auswahl"
        fill="#EA967C" stroke="#EA967C" stroke-width="1"
        d="M 239.00,323.00
           C 239.00,323.00 239.00,160.00 239.00,160.00
             239.00,157.73 239.22,154.34 237.98,152.39
             236.56,150.16 232.34,148.49 230.00,147.12
             226.10,144.85 221.46,141.25 218.44,137.91
             206.16,124.35 201.89,105.51 207.21,88.00
             208.76,82.89 212.95,75.09 216.33,71.00
             241.10,41.01 288.00,48.17 303.13,84.00
             305.23,88.98 307.21,98.62 306.91,104.00
             306.13,117.64 301.65,129.21 291.99,139.00
             288.37,142.66 286.43,144.36 282.00,146.98
             279.67,148.36 275.39,150.07 274.02,152.27
             272.79,154.26 273.00,157.70 273.00,160.00
             273.00,160.00 273.00,323.00 273.00,323.00
             273.00,323.00 285.00,323.91 285.00,323.91
             316.82,326.14 359.12,335.57 388.00,349.00
             388.00,349.00 398.85,308.00 398.85,308.00
             398.85,308.00 418.88,233.00 418.88,233.00
             418.88,233.00 427.15,202.00 427.15,202.00
             427.95,199.04 431.13,188.41 431.02,186.04
             430.84,182.16 422.51,175.80 419.79,172.00
             414.03,163.96 410.42,152.87 410.04,143.00
             408.99,116.00 431.88,91.32 459.00,91.00
             479.22,90.77 497.64,100.26 506.68,119.00
             518.37,143.25 510.07,173.12 486.00,186.21
             478.96,190.04 473.03,191.93 465.00,192.00
             465.00,192.00 459.37,214.00 459.37,214.00
             459.37,214.00 445.15,267.00 445.15,267.00
             445.15,267.00 429.88,324.00 429.88,324.00
             429.88,324.00 419.00,364.00 419.00,364.00
             428.41,368.08 442.42,377.28 451.00,383.28
             469.86,396.48 487.35,411.12 503.02,428.00
             507.09,432.38 509.63,434.74 509.96,441.00
             510.53,451.83 503.43,460.85 492.00,459.66
             481.51,458.57 470.65,444.22 463.00,437.09
             448.51,423.59 427.30,407.71 410.00,398.00
             410.00,398.00 401.00,432.00 401.00,432.00
             399.62,436.83 398.64,443.04 395.58,446.98
             387.40,457.53 371.11,455.70 366.15,443.00
             363.46,436.14 366.70,427.76 368.58,421.00
             368.58,421.00 379.00,382.00 379.00,382.00
             349.74,370.30 324.57,362.21 293.00,358.84
             293.00,358.84 273.00,357.00 273.00,357.00
             273.00,357.00 273.00,396.00 273.00,396.00
             273.00,402.73 273.89,411.00 270.59,417.00
             264.61,427.85 249.97,428.51 242.42,418.96
             238.89,414.51 239.01,410.34 239.00,405.00
             239.00,405.00 239.00,357.00 239.00,357.00
             215.81,357.21 185.28,364.01 163.00,370.72
             163.00,370.72 133.00,381.00 133.00,381.00
             133.00,381.00 143.42,421.00 143.42,421.00
             145.20,427.38 148.24,435.47 146.20,442.00
             142.18,454.83 125.93,457.80 117.22,447.96
             113.32,443.55 112.57,437.48 111.00,432.00
             111.00,432.00 102.00,398.00 102.00,398.00
             82.87,408.24 61.12,425.59 45.00,440.17
             37.57,446.89 28.63,459.66 18.00,459.66
             9.03,459.66 2.23,452.70 1.34,444.00
             0.58,436.61 5.26,431.00 10.04,426.00
             25.45,409.86 46.40,392.76 65.00,380.33
             72.20,375.53 85.22,366.86 93.00,364.00
             93.00,364.00 81.85,323.00 81.85,323.00
             81.85,323.00 61.88,249.00 61.88,249.00
             61.88,249.00 51.71,211.00 51.71,211.00
             51.71,211.00 47.87,197.02 47.87,197.02
             45.36,191.25 41.20,192.11 36.00,190.56
             32.27,189.45 27.33,187.10 24.00,185.07
             9.41,176.20 0.40,160.00 0.01,143.00
             -0.14,136.07 1.41,128.42 4.02,122.00
             6.68,115.44 10.78,109.46 16.04,104.88
             36.37,86.45 65.99,85.84 86.00,104.88
             93.42,112.16 96.77,117.10 99.57,127.00
             101.02,132.09 102.17,137.70 101.96,143.00
             101.58,152.87 97.97,163.96 92.21,172.00
             89.49,175.80 81.16,182.16 80.98,186.04
             80.87,188.41 84.05,199.04 84.85,202.00
             84.85,202.00 93.12,233.00 93.12,233.00
             93.12,233.00 113.15,308.00 113.15,308.00
             113.15,308.00 124.00,349.00 124.00,349.00
             133.52,344.07 146.67,340.15 157.00,336.98
             179.73,329.98 215.36,323.02 239.00,323.00 Z
           M 254.00,86.34
           C 248.39,87.44 244.03,89.88 241.09,95.00
             234.10,107.14 244.43,121.46 258.00,119.82
             271.44,118.19 277.38,102.29 268.61,92.10
             264.86,87.74 259.56,86.19 254.00,86.34 Z
           M 47.00,125.39
           C 24.36,132.20 34.52,162.58 54.00,158.32
             68.33,155.18 72.65,137.79 61.70,128.80
             57.29,125.18 52.44,124.67 47.00,125.39 Z
           M 458.00,125.33
           C 450.41,127.20 445.01,131.84 444.20,140.00
             443.16,150.34 452.53,160.00 463.00,158.63
             477.74,156.71 483.32,137.99 471.82,128.64
             467.53,125.15 463.25,124.76 458.00,125.33 Z" />
</svg>
