<?xml version="1.0" encoding="UTF-8" standalone="no"?>
<!DOCTYPE svg PUBLIC "-//W3C//DTD SVG 20010904//EN"
              "http://www.w3.org/TR/2001/REC-SVG-20010904/DTD/svg10.dtd">

<svg xmlns="http://www.w3.org/2000/svg"
     width="30.6513in" height="20.4253in"
     viewBox="0 0 8000 5331">
  <path id="Auswahl"
        fill="black" stroke="black" stroke-width="1"
        d="M 3961.00,1888.00
           C 3961.00,1888.00 3952.72,1860.00 3952.72,1860.00
             3952.72,1860.00 3936.72,1807.00 3936.72,1807.00
             3936.72,1807.00 3893.72,1664.00 3893.72,1664.00
             3893.72,1664.00 3752.28,1194.00 3752.28,1194.00
             3752.28,1194.00 3696.28,1008.00 3696.28,1008.00
             3696.28,1008.00 3672.45,927.00 3672.45,927.00
             3670.78,918.73 3669.10,902.39 3669.00,894.00
             3669.00,894.00 3669.00,734.00 3669.00,734.00
             3669.00,701.04 3666.45,661.45 3675.43,630.00
             3681.55,608.55 3694.30,587.72 3710.00,572.00
             3740.08,541.88 3775.57,527.51 3818.00,528.00
             3818.00,528.00 3827.00,528.83 3827.00,528.83
             3869.13,533.04 3890.35,549.78 3924.00,572.98
             3924.00,572.98 3982.00,612.00 3982.00,612.00
             3982.00,612.00 4320.00,840.00 4320.00,840.00
             4320.00,840.00 4562.00,1003.33 4562.00,1003.33
             4562.00,1003.33 4902.00,1232.66 4902.00,1232.66
             4902.00,1232.66 5022.00,1313.34 5022.00,1313.34
             5022.00,1313.34 5624.00,1719.66 5624.00,1719.66
             5624.00,1719.66 6042.00,2001.34 6042.00,2001.34
             6042.00,2001.34 6296.00,2172.67 6296.00,2172.67
             6296.00,2172.67 6477.00,2295.00 6477.00,2295.00
             6477.00,2295.00 6643.00,2406.98 6643.00,2406.98
             6661.23,2419.54 6686.41,2434.39 6702.00,2449.09
             6726.64,2472.32 6744.60,2511.96 6745.00,2546.00
             6745.00,2546.00 6745.00,2631.00 6745.00,2631.00
             6745.00,2631.00 6745.00,2783.00 6745.00,2783.00
             6744.95,2817.70 6727.71,2856.81 6702.96,2880.91
             6691.39,2892.18 6671.81,2904.79 6658.00,2914.00
             6658.00,2914.00 6598.00,2954.33 6598.00,2954.33
             6598.00,2954.33 6497.00,3022.66 6497.00,3022.66
             6497.00,3022.66 6334.00,3132.34 6334.00,3132.34
             6334.00,3132.34 6138.00,3264.67 6138.00,3264.67
             6138.00,3264.67 6029.00,3338.33 6029.00,3338.33
             6029.00,3338.33 5731.00,3539.33 5731.00,3539.33
             5731.00,3539.33 5390.00,3769.33 5390.00,3769.33
             5390.00,3769.33 5179.00,3911.66 5179.00,3911.66
             5179.00,3911.66 5059.00,3992.34 5059.00,3992.34
             5059.00,3992.34 4626.00,4284.66 4626.00,4284.66
             4626.00,4284.66 4415.00,4426.98 4415.00,4426.98
             4415.00,4426.98 4380.00,4450.34 4380.00,4450.34
             4380.00,4450.34 4254.00,4535.34 4254.00,4535.34
             4254.00,4535.34 4004.00,4704.00 4004.00,4704.00
             4004.00,4704.00 3922.00,4759.33 3922.00,4759.33
             3908.91,4768.06 3891.61,4780.93 3878.00,4787.73
             3857.26,4798.10 3833.12,4803.27 3810.00,4803.00
             3810.00,4803.00 3801.00,4802.17 3801.00,4802.17
             3790.10,4801.08 3779.48,4799.29 3769.00,4795.97
             3725.82,4782.29 3690.62,4746.82 3676.35,4704.00
             3671.96,4690.80 3670.54,4679.74 3669.87,4666.00
             3669.87,4666.00 3669.87,4658.00 3669.87,4658.00
             3669.87,4658.00 3669.87,4649.00 3669.87,4649.00
             3669.87,4649.00 3669.87,4454.00 3669.87,4454.00
             3669.87,4454.00 3669.00,4436.00 3669.00,4436.00
             3669.00,4436.00 3670.04,4426.00 3670.04,4426.00
             3670.04,4426.00 3670.04,4418.00 3670.04,4418.00
             3671.87,4400.22 3678.18,4383.01 3683.28,4366.00
             3683.28,4366.00 3695.28,4326.00 3695.28,4326.00
             3695.28,4326.00 3751.28,4140.00 3751.28,4140.00
             3751.28,4140.00 3889.72,3680.00 3889.72,3680.00
             3889.72,3680.00 3936.72,3524.00 3936.72,3524.00
             3936.72,3524.00 3952.72,3471.00 3952.72,3471.00
             3952.72,3471.00 3961.00,3443.00 3961.00,3443.00
             3961.00,3443.00 3888.00,3449.83 3888.00,3449.83
             3888.00,3449.83 3752.00,3462.83 3752.00,3462.83
             3752.00,3462.83 3334.00,3502.83 3334.00,3502.83
             3334.00,3502.83 2366.00,3595.17 2366.00,3595.17
             2366.00,3595.17 2042.00,3626.17 2042.00,3626.17
             2042.00,3626.17 1927.00,3637.17 1927.00,3637.17
             1927.00,3637.17 1890.00,3640.91 1890.00,3640.91
             1890.00,3640.91 1839.00,3645.83 1839.00,3645.83
             1839.00,3645.83 1745.00,3654.83 1745.00,3654.83
             1745.00,3654.83 1540.00,3674.17 1540.00,3674.17
             1540.00,3674.17 1446.00,3683.17 1446.00,3683.17
             1446.00,3683.17 1406.00,3687.00 1406.00,3687.00
             1380.05,3687.30 1357.50,3683.79 1334.00,3672.03
             1321.60,3665.83 1305.77,3654.80 1296.17,3644.91
             1272.23,3620.26 1255.05,3582.70 1255.00,3548.00
             1255.00,3548.00 1255.00,2083.00 1255.00,2083.00
             1255.00,2083.00 1255.00,1783.00 1255.00,1783.00
             1255.08,1731.63 1288.89,1680.23 1335.00,1658.32
             1360.09,1646.40 1379.62,1643.68 1407.00,1644.00
             1407.00,1644.00 1489.00,1651.83 1489.00,1651.83
             1489.00,1651.83 1625.00,1664.83 1625.00,1664.83
             1625.00,1664.83 2064.00,1706.83 2064.00,1706.83
             2064.00,1706.83 3408.00,1835.17 3408.00,1835.17
             3408.00,1835.17 3774.00,1870.17 3774.00,1870.17
             3774.00,1870.17 3889.00,1881.17 3889.00,1881.17
             3889.00,1881.17 3961.00,1888.00 3961.00,1888.00 Z" />
</svg>
