<?xml version="1.0" encoding="UTF-8" standalone="no"?>
<!DOCTYPE svg PUBLIC "-//W3C//DTD SVG 20010904//EN"
              "http://www.w3.org/TR/2001/REC-SVG-20010904/DTD/svg10.dtd">

<svg xmlns="http://www.w3.org/2000/svg"
     width="2.02667in" height="2.26in"
     viewBox="0 0 608 678">
  <path id="Outer"
        fill="white" stroke="white" stroke-width="1"
        d="M 15.00,0.31
           C 17.22,0.17 18.71,-0.06 21.00,0.31
             28.61,0.63 46.55,12.31 54.00,16.58
             54.00,16.58 140.00,65.85 140.00,65.85
             140.00,65.85 481.00,261.28 481.00,261.28
             481.00,261.28 581.00,318.60 581.00,318.60
             592.99,325.71 611.91,332.36 607.24,350.00
             604.06,362.01 596.26,363.00 586.00,366.33
             586.00,366.33 533.00,382.42 533.00,382.42
             533.00,382.42 447.00,408.98 447.00,408.98
             447.00,408.98 371.00,432.33 371.00,432.33
             371.00,432.33 330.00,444.98 330.00,444.98
             322.56,447.29 315.86,448.19 310.18,454.09
             306.54,457.89 297.26,472.78 293.95,478.00
             293.95,478.00 269.95,515.00 269.95,515.00
             269.95,515.00 201.00,621.00 201.00,621.00
             201.00,621.00 175.05,661.00 175.05,661.00
             170.20,668.64 166.92,675.98 157.00,677.67
             153.78,678.22 150.08,677.81 147.00,676.75
             134.39,672.42 134.40,658.97 131.88,648.00
             131.88,648.00 123.79,609.00 123.79,609.00
             123.79,609.00 108.80,538.00 108.80,538.00
             108.80,538.00 68.21,344.00 68.21,344.00
             68.21,344.00 23.21,129.00 23.21,129.00
             23.21,129.00 3.12,34.00 3.12,34.00
             2.39,30.81 0.32,21.83 0.34,19.00
             0.42,9.98 6.72,3.11 15.00,0.31 Z
           M 48.00,57.00
           C 46.63,61.13 48.37,65.83 49.20,70.00
             49.20,70.00 55.00,98.00 55.00,98.00
             55.00,98.00 77.20,204.00 77.20,204.00
             77.20,204.00 133.79,475.00 133.79,475.00
             133.79,475.00 152.00,562.00 152.00,562.00
             152.00,562.00 162.00,610.00 162.00,610.00
             162.00,610.00 164.00,610.00 164.00,610.00
             164.00,610.00 185.95,576.00 185.95,576.00
             185.95,576.00 241.31,491.00 241.31,491.00
             241.31,491.00 268.33,449.00 268.33,449.00
             274.72,439.41 280.87,429.68 290.00,422.38
             300.15,414.26 313.80,410.94 326.00,407.28
             326.00,407.28 374.00,392.58 374.00,392.58
             374.00,392.58 489.00,357.28 489.00,357.28
             489.00,357.28 541.00,342.00 541.00,342.00
             539.34,337.21 535.19,336.01 531.00,333.58
             531.00,333.58 508.00,320.15 508.00,320.15
             508.00,320.15 416.00,267.42 416.00,267.42
             416.00,267.42 171.00,127.15 171.00,127.15
             171.00,127.15 89.00,80.15 89.00,80.15
             89.00,80.15 48.00,57.00 48.00,57.00 Z" />
  <path id="Inner"
        fill="#333" stroke="#333" stroke-width="1"
        d="M 47.00,57.00
           C 47.00,57.00 86.00,78.58 86.00,78.58
             86.00,78.58 155.00,118.15 155.00,118.15
             155.00,118.15 382.00,248.15 382.00,248.15
             382.00,248.15 491.00,310.58 491.00,310.58
             491.00,310.58 523.00,329.00 523.00,329.00
             523.00,329.00 541.00,341.00 541.00,341.00
             541.00,341.00 516.00,348.72 516.00,348.72
             516.00,348.72 477.00,360.72 477.00,360.72
             477.00,360.72 365.00,395.28 365.00,395.28
             365.00,395.28 328.00,406.58 328.00,406.58
             315.35,410.28 301.83,413.62 291.00,421.49
             279.94,429.53 272.72,441.59 265.58,453.00
             265.58,453.00 246.95,482.00 246.95,482.00
             246.95,482.00 196.69,559.00 196.69,559.00
             196.69,559.00 164.00,609.00 164.00,609.00
             164.00,609.00 162.00,609.00 162.00,609.00
             162.00,609.00 156.58,584.00 156.58,584.00
             156.58,584.00 144.58,526.00 144.58,526.00
             144.58,526.00 102.79,326.00 102.79,326.00
             102.79,326.00 65.79,149.00 65.79,149.00
             65.79,149.00 52.80,87.00 52.80,87.00
             52.80,87.00 47.00,57.00 47.00,57.00 Z" />
</svg>
