<?xml version="1.0" encoding="UTF-8" standalone="no"?>
<!DOCTYPE svg PUBLIC "-//W3C//DTD SVG 20010904//EN"
              "http://www.w3.org/TR/2001/REC-SVG-20010904/DTD/svg10.dtd">

<svg xmlns="http://www.w3.org/2000/svg"
     width="2.51111in" height="2.5in"
     viewBox="0 0 226 225">
  <path id="Auswahl"
        fill="#A6181A" stroke="#A6181A" stroke-width="1"
        d="M 102.00,0.21
           C 102.00,0.21 116.00,0.21 116.00,0.21
             129.54,0.02 146.56,4.10 159.00,9.43
             169.54,13.94 182.76,23.13 191.00,31.04
             239.29,77.43 235.99,157.29 184.00,199.54
             172.66,208.76 162.79,214.07 149.00,218.67
             136.30,222.90 130.12,223.49 117.00,224.26
             117.00,224.26 109.00,224.26 109.00,224.26
             80.10,222.65 53.88,212.71 33.09,191.91
             -15.25,143.55 -8.40,62.45 46.00,21.66
             64.14,8.07 80.15,3.72 102.00,0.21 Z
           M 107.00,4.28
           C 95.28,5.97 87.52,6.67 76.00,10.69
             47.88,20.51 26.50,40.96 14.31,68.00
             -3.73,108.02 5.08,157.70 36.17,188.83
             48.21,200.88 62.94,209.32 79.00,214.67
             86.98,217.32 99.62,219.90 108.00,220.00
             127.48,220.22 146.63,217.05 164.00,207.69
             220.76,177.12 237.63,105.44 202.66,52.00
             196.08,41.96 189.58,34.56 180.00,27.24
             168.68,18.58 156.70,12.46 143.00,8.58
             133.18,5.80 117.10,3.35 107.00,4.28 Z
           M 114.00,90.00
           C 112.46,80.04 106.24,67.41 106.01,58.00
             105.92,53.85 105.77,47.39 112.00,48.81
             115.16,49.52 132.29,61.50 136.00,64.14
             136.00,64.14 182.00,95.33 182.00,95.33
             185.84,97.89 197.08,104.60 198.98,108.09
             200.00,109.96 200.11,112.90 199.94,115.00
             199.32,122.82 187.08,128.61 181.00,132.67
             181.00,132.67 132.00,165.67 132.00,165.67
             128.23,168.18 114.51,178.10 111.02,178.44
             105.57,178.97 105.93,172.66 106.01,169.00
             106.20,161.07 111.98,146.95 114.00,138.00
             114.00,138.00 54.00,143.28 54.00,143.28
             49.53,143.82 35.82,146.41 33.17,142.57
             31.76,140.52 32.00,136.45 32.00,134.00
             32.00,134.00 32.00,93.00 32.00,93.00
             32.01,89.13 31.55,84.24 36.06,82.64
             38.41,81.80 51.48,83.77 55.00,83.97
             55.00,83.97 95.00,87.83 95.00,87.83
             100.52,88.37 108.82,88.53 114.00,90.00 Z" />
</svg>
