<?xml version="1.0" encoding="UTF-8" standalone="no"?>
<!DOCTYPE svg PUBLIC "-//W3C//DTD SVG 20010904//EN"
              "http://www.w3.org/TR/2001/REC-SVG-20010904/DTD/svg10.dtd">

<svg xmlns="http://www.w3.org/2000/svg"
     width="1.38667in" height="1.18667in"
     viewBox="0 0 416 356">
  <path id="Speak"
        fill="#EA967C" stroke="#EA967C" stroke-width="1"
        d="M 249.00,232.00
           C 253.79,233.84 267.53,237.32 269.96,241.39
             272.81,246.15 266.51,249.25 266.04,257.00
             265.23,270.59 274.31,283.61 259.98,295.53
             258.23,296.99 256.08,298.49 254.00,299.45
             246.44,302.90 232.52,302.01 224.00,301.95
             217.83,301.99 207.28,299.86 202.00,301.95
             193.64,305.10 193.01,314.37 193.00,322.00
             192.99,329.74 193.29,349.11 186.66,353.99
             183.59,356.26 179.61,355.99 176.00,356.00
             176.00,356.00 59.00,356.00 59.00,356.00
             52.83,355.99 46.68,355.96 46.15,348.00
             46.15,348.00 52.55,318.00 52.55,318.00
             56.84,296.56 57.70,272.26 45.77,253.00
             45.77,253.00 33.89,237.00 33.89,237.00
             25.80,226.19 18.86,214.31 13.31,202.00
             0.29,173.13 0.64,146.74 1.00,116.00
             1.56,68.26 39.30,23.94 83.00,8.05
             102.19,1.08 122.81,-0.09 143.00,0.00
             174.38,0.15 210.37,13.09 232.96,35.09
             240.80,42.72 248.20,53.32 253.30,63.00
             258.16,72.23 263.95,85.55 264.81,96.00
             265.69,106.62 258.30,113.59 263.35,125.00
             266.41,131.93 281.93,154.60 287.02,162.00
             291.01,167.78 296.36,173.36 294.61,180.99
             292.00,192.35 275.51,191.39 271.56,195.51
             268.30,198.91 268.00,206.90 269.83,211.00
             271.29,214.28 274.10,217.92 272.26,221.71
             270.90,224.49 265.81,224.15 263.00,224.59
             256.18,225.66 252.68,225.55 249.00,232.00 Z
           M 371.11,134.03
           C 378.11,131.83 382.31,138.04 386.39,143.00
             396.55,155.35 402.19,165.18 408.00,180.00
             421.56,214.64 417.90,254.22 401.24,287.00
             397.01,295.34 384.86,314.05 376.96,318.34
             370.75,321.71 366.43,315.91 368.85,310.09
             369.97,307.39 375.59,301.55 377.72,299.00
             382.08,293.76 386.44,287.01 389.69,281.00
             403.92,254.73 407.55,219.41 398.00,191.00
             392.00,173.18 384.93,161.29 372.46,147.17
             368.29,142.44 365.10,138.93 371.11,134.03 Z
           M 340.11,152.76
           C 345.96,151.73 348.32,154.95 352.00,159.04
             359.12,166.95 365.33,177.08 369.19,187.00
             380.79,216.83 379.63,248.94 363.57,277.00
             360.29,282.73 350.81,297.16 345.00,299.53
             339.53,301.75 335.05,296.84 336.62,292.00
             336.62,292.00 351.69,271.00 351.69,271.00
             364.80,247.27 368.25,221.71 358.58,196.00
             355.49,187.80 352.17,181.11 346.99,174.00
             346.99,174.00 337.02,161.00 337.02,161.00
             335.28,157.09 336.86,154.78 340.11,152.76 Z
           M 308.11,172.04
           C 313.54,170.45 316.09,172.94 319.54,177.02
             324.56,182.95 329.05,190.80 331.99,198.00
             340.18,218.11 338.50,240.64 329.30,260.00
             326.46,265.98 319.98,277.05 314.00,279.97
             309.09,282.38 303.25,278.61 304.84,273.00
             304.84,273.00 317.14,255.00 317.14,255.00
             324.47,241.65 326.37,222.49 321.64,208.00
             319.29,200.78 317.01,196.18 312.57,190.00
             310.72,187.42 305.51,181.51 304.84,179.00
             303.94,175.59 305.74,173.94 308.11,172.04 Z" />
</svg>
