<?xml version="1.0" encoding="UTF-8" standalone="no"?>
<!DOCTYPE svg PUBLIC "-//W3C//DTD SVG 20010904//EN"
              "http://www.w3.org/TR/2001/REC-SVG-20010904/DTD/svg10.dtd">

<svg xmlns="http://www.w3.org/2000/svg"
     width="2.82667in" height="2.84667in"
     viewBox="0 0 848 854">
  <path id="Auswahl"
        fill="rgba(166, 24, 26, 0.9)" stroke="rgba(166, 24, 26, 0.9)" stroke-width="1"
        d="M 750.00,0.57
           C 759.41,-0.27 766.21,5.59 774.00,9.74
             774.00,9.74 792.00,20.40 792.00,20.40
             792.00,20.40 831.00,43.42 831.00,43.42
             839.72,48.48 848.68,53.23 847.78,65.00
             847.24,72.00 838.45,84.51 834.60,91.00
             834.60,91.00 801.20,147.00 801.20,147.00
             801.20,147.00 711.20,298.00 711.20,298.00
             711.20,298.00 680.53,349.00 680.53,349.00
             676.85,354.92 673.69,362.88 668.82,367.90
             663.99,372.87 648.83,379.17 642.00,382.31
             642.00,382.31 596.00,404.02 596.00,404.02
             587.94,408.24 578.53,410.74 571.10,404.02
             563.79,396.95 565.50,390.63 564.91,382.00
             564.91,382.00 563.00,342.00 563.00,342.00
             562.90,334.05 560.09,313.34 561.53,307.00
             563.05,300.25 573.11,284.62 577.19,278.00
             577.19,278.00 607.14,228.00 607.14,228.00
             607.14,228.00 695.20,80.00 695.20,80.00
             695.20,80.00 728.42,25.00 728.42,25.00
             734.11,15.28 738.29,3.88 750.00,0.57 Z
           M 727.92,326.00
           C 727.92,326.00 727.92,496.00 727.92,496.00
             727.92,496.00 727.92,559.00 727.92,559.00
             727.90,567.47 726.92,565.85 727.92,576.00
             728.14,582.25 724.12,604.67 722.10,611.00
             722.10,611.00 717.87,621.00 717.87,621.00
             717.87,621.00 713.68,631.00 713.68,631.00
             694.46,667.62 652.84,694.93 611.00,695.00
             611.00,695.00 281.00,695.00 281.00,695.00
             277.68,695.01 274.06,694.82 271.00,696.31
             264.94,699.28 253.08,717.65 248.38,724.00
             248.38,724.00 182.14,817.00 182.14,817.00
             182.14,817.00 164.16,842.00 164.16,842.00
             159.96,848.16 156.31,853.70 148.00,852.89
             136.54,851.77 138.46,841.07 137.91,833.00
             137.91,833.00 137.00,821.00 137.00,821.00
             137.00,821.00 137.00,806.00 137.00,806.00
             137.00,806.00 135.96,791.00 135.96,791.00
             135.96,791.00 135.96,779.00 135.96,779.00
             135.96,779.00 135.00,768.00 135.00,768.00
             135.00,768.00 135.00,752.00 135.00,752.00
             135.00,752.00 134.00,737.00 134.00,737.00
             134.00,737.00 134.00,722.00 134.00,722.00
             134.00,722.00 133.17,713.00 133.17,713.00
             132.64,707.50 133.68,703.19 129.21,698.80
             124.36,694.03 118.07,695.33 112.00,694.91
             112.00,694.91 104.00,693.87 104.00,693.87
             89.44,691.83 76.94,687.69 64.00,680.69
             25.44,659.84 0.07,619.14 0.00,575.00
             0.00,575.00 0.00,299.00 0.00,299.00
             0.08,247.57 33.14,200.74 82.00,184.17
             92.47,180.62 104.93,178.02 116.00,178.00
             116.00,178.00 605.00,178.00 605.00,178.00
             605.00,178.00 588.60,206.00 588.60,206.00
             588.60,206.00 556.40,260.00 556.40,260.00
             550.22,270.31 537.75,289.20 534.92,300.00
             533.59,305.08 533.99,312.58 534.00,318.00
             534.00,318.00 535.00,334.00 535.00,334.00
             535.00,334.00 536.09,363.00 536.09,363.00
             536.09,363.00 537.00,373.00 537.00,373.00
             537.03,375.54 537.44,382.40 536.01,384.30
             534.50,386.30 529.45,387.20 527.00,388.17
             522.37,390.00 517.88,392.91 514.01,396.01
             502.85,404.98 495.60,418.63 495.04,433.00
             494.01,459.35 516.52,483.69 543.00,484.00
             543.00,484.00 547.00,484.00 547.00,484.00
             574.12,483.87 593.80,460.01 595.00,434.00
             595.00,434.00 640.00,413.31 640.00,413.31
             640.00,413.31 681.00,393.21 681.00,393.21
             684.01,391.06 688.38,386.82 690.79,384.00
             690.79,384.00 716.55,342.00 716.55,342.00
             719.64,336.85 722.81,329.09 727.92,326.00 Z
           M 175.00,385.30
           C 156.98,388.66 142.42,399.34 136.09,417.00
             125.35,446.93 145.38,483.60 179.00,484.00
             189.76,484.12 197.15,483.76 207.00,478.60
             237.41,462.67 241.46,419.95 216.49,397.29
             204.44,386.36 190.70,383.74 175.00,385.30 Z
           M 355.00,385.32
           C 329.98,390.77 313.71,410.27 314.00,436.00
             314.28,460.33 335.13,483.70 360.00,484.00
             371.14,484.13 376.63,484.23 387.00,479.03
             415.67,464.65 422.92,424.82 401.38,401.17
             388.77,387.32 373.06,383.35 355.00,385.32 Z" />
</svg>
