<?xml version="1.0" encoding="UTF-8" standalone="no"?>
<!DOCTYPE svg PUBLIC "-//W3C//DTD SVG 20010904//EN"
              "http://www.w3.org/TR/2001/REC-SVG-20010904/DTD/svg10.dtd">

<svg xmlns="http://www.w3.org/2000/svg"
     width="6.4in" height="6.4in"
     viewBox="0 0 1920 1920">
  <path id="Auswahl"
        fill="#F1F1CF" stroke="#F1F1CF" stroke-width="1"
        d="M 1919.00,31.00
           C 1919.00,31.00 1920.00,47.00 1920.00,47.00
             1920.00,47.00 1920.00,80.00 1920.00,80.00
             1920.00,80.00 1920.00,194.00 1920.00,194.00
             1920.00,194.00 1920.00,583.00 1920.00,583.00
             1920.00,583.00 1920.00,1920.00 1920.00,1920.00
             1920.00,1920.00 582.00,1920.00 582.00,1920.00
             582.00,1920.00 193.00,1920.00 193.00,1920.00
             193.00,1920.00 79.00,1920.00 79.00,1920.00
             79.00,1920.00 46.00,1920.00 46.00,1920.00
             46.00,1920.00 30.00,1919.00 30.00,1919.00
             30.00,1919.00 50.00,1919.00 50.00,1919.00
             50.00,1919.00 65.00,1918.00 65.00,1918.00
             65.00,1918.00 89.00,1917.00 89.00,1917.00
             89.00,1917.00 99.00,1916.09 99.00,1916.09
             99.00,1916.09 135.00,1913.17 135.00,1913.17
             173.20,1909.47 211.11,1904.77 249.00,1898.41
             417.11,1870.21 572.08,1818.50 726.00,1745.78
             878.64,1673.66 1024.49,1579.39 1155.00,1472.42
             1390.80,1279.16 1583.88,1044.05 1723.74,773.00
             1723.74,773.00 1764.31,688.00 1764.31,688.00
             1829.30,546.07 1877.47,388.30 1901.42,234.00
             1911.60,168.48 1919.00,97.19 1919.00,31.00 Z" />
</svg>
