<?xml version="1.0" encoding="UTF-8" standalone="no"?>
<!DOCTYPE svg PUBLIC "-//W3C//DTD SVG 20010904//EN"
              "http://www.w3.org/TR/2001/REC-SVG-20010904/DTD/svg10.dtd">

<svg xmlns="http://www.w3.org/2000/svg"
     width="4.27778in" height="4.27778in"
     viewBox="0 0 308 308">
  <path id="Auswahl"
        fill="#333" stroke="#333" stroke-width="1"
        d="M 24.00,0.48
           C 40.93,-0.48 52.15,15.15 63.00,26.00
             63.00,26.00 127.00,90.00 127.00,90.00
             127.00,90.00 145.00,108.00 145.00,108.00
             146.69,109.68 150.86,114.24 153.00,114.80
             156.26,115.66 159.93,111.06 162.00,109.00
             162.00,109.00 183.00,88.00 183.00,88.00
             183.00,88.00 235.00,36.00 235.00,36.00
             235.00,36.00 263.00,8.18 263.00,8.18
             273.70,-1.18 290.29,-2.84 300.67,8.18
             303.45,11.14 305.44,15.11 306.51,19.00
             309.95,31.54 304.60,40.29 296.00,49.00
             296.00,49.00 218.00,127.00 218.00,127.00
             218.00,127.00 199.00,146.00 199.00,146.00
             197.24,147.77 193.04,151.40 193.04,154.00
             193.04,156.73 198.10,161.10 200.00,163.00
             200.00,163.00 220.00,183.00 220.00,183.00
             220.00,183.00 274.00,237.00 274.00,237.00
             274.00,237.00 301.47,265.00 301.47,265.00
             313.90,281.15 306.64,303.30 286.00,307.19
             268.79,310.43 255.79,292.79 245.00,282.00
             245.00,282.00 181.00,218.00 181.00,218.00
             181.00,218.00 163.00,200.00 163.00,200.00
             161.31,198.32 157.14,193.76 155.00,193.20
             151.74,192.34 148.07,196.94 146.00,199.00
             146.00,199.00 126.00,219.00 126.00,219.00
             126.00,219.00 72.00,273.00 72.00,273.00
             72.00,273.00 44.00,300.67 44.00,300.67
             32.76,309.94 15.06,310.34 5.79,297.96
             -1.46,288.29 -1.14,275.73 5.79,266.00
             8.38,262.36 12.77,258.23 16.00,255.00
             16.00,255.00 90.00,181.00 90.00,181.00
             90.00,181.00 109.00,162.00 109.00,162.00
             110.76,160.23 114.96,156.60 114.96,154.00
             114.96,151.27 109.90,146.90 108.00,145.00
             108.00,145.00 87.00,124.00 87.00,124.00
             87.00,124.00 33.00,70.00 33.00,70.00
             33.00,70.00 5.79,42.00 5.79,42.00
             -1.89,31.23 -1.44,15.35 9.09,6.53
             13.62,2.73 18.34,1.45 24.00,0.48 Z" />
</svg>
