<?xml version="1.0" encoding="UTF-8" standalone="no"?>
<!DOCTYPE svg PUBLIC "-//W3C//DTD SVG 20010904//EN"
              "http://www.w3.org/TR/2001/REC-SVG-20010904/DTD/svg10.dtd">

<svg xmlns="http://www.w3.org/2000/svg"
     width="6.13889in" height="5.52778in"
     viewBox="0 0 442 398">
  <path id="Relax"
        fill="#EA967C" stroke="#EA967C" stroke-width="1"
        d="M 72.00,279.00
           C 72.00,279.00 58.13,331.00 58.13,331.00
             58.13,331.00 48.37,368.00 48.37,368.00
             46.41,375.63 44.39,385.15 38.82,390.90
             34.41,395.44 30.17,396.92 24.00,397.00
             9.97,397.16 -0.90,387.61 0.10,373.00
             0.10,373.00 9.85,335.00 9.85,335.00
             9.85,335.00 29.73,260.00 29.73,260.00
             30.60,256.73 31.86,251.90 33.41,249.00
             34.47,247.04 37.14,243.88 37.44,242.00
             37.93,238.86 32.02,231.07 30.31,228.00
             25.37,219.11 21.25,210.38 21.01,200.00
             20.93,196.09 21.04,192.78 22.22,189.00
             29.70,165.08 56.14,167.91 76.00,168.00
             76.00,168.00 87.00,168.91 87.00,168.91
             87.00,168.91 112.00,171.07 112.00,171.07
             115.34,171.38 121.99,172.68 125.00,172.02
             128.69,171.21 136.56,164.45 140.00,161.87
             140.00,161.87 172.00,137.79 172.00,137.79
             172.00,137.79 191.00,123.58 191.00,123.58
             192.64,122.31 196.80,119.40 197.40,117.49
             197.87,115.98 196.43,111.97 196.18,110.00
             196.18,110.00 195.00,94.00 195.00,94.00
             195.00,94.00 193.00,53.00 193.00,53.00
             192.88,43.43 189.74,24.25 192.47,16.00
             193.38,13.24 194.47,11.26 196.34,9.17
             209.50,-6.82 227.59,4.13 243.00,9.17
             243.00,9.17 258.00,15.00 258.00,15.00
             254.65,20.97 251.03,25.45 248.46,32.00
             244.86,41.20 245.00,48.45 245.00,58.00
             245.00,58.00 239.00,57.00 239.00,57.00
             239.00,57.00 239.83,76.00 239.83,76.00
             240.09,78.65 239.69,82.53 241.02,84.79
             242.50,87.29 246.43,89.00 249.00,90.22
             249.00,90.22 268.00,98.20 268.00,98.20
             282.33,103.95 309.83,113.01 325.00,111.91
             330.50,111.51 335.71,109.29 341.00,107.88
             346.79,106.35 352.78,105.01 358.00,102.00
             358.00,102.00 336.00,91.00 336.00,91.00
             336.00,91.00 345.55,77.00 345.55,77.00
             350.30,68.98 352.80,58.29 353.00,49.00
             360.66,51.19 369.80,57.03 377.00,60.74
             377.00,60.74 423.00,84.83 423.00,84.83
             432.85,90.07 441.04,94.38 441.90,107.00
             442.49,115.53 438.51,123.84 430.99,128.10
             426.33,130.73 411.83,134.76 406.00,136.42
             406.00,136.42 367.00,147.98 367.00,147.98
             367.00,147.98 330.00,158.86 330.00,158.86
             323.92,160.61 311.08,164.16 306.00,166.90
             306.00,166.90 274.00,186.95 274.00,186.95
             274.00,186.95 211.00,226.42 211.00,226.42
             211.00,226.42 173.00,249.65 173.00,249.65
             173.00,249.65 155.00,253.88 155.00,253.88
             155.00,253.88 120.00,261.00 120.00,261.00
             120.00,261.00 149.00,285.80 149.00,285.80
             157.48,292.60 164.70,297.09 164.99,309.00
             165.30,321.82 157.23,332.10 144.00,332.91
             133.87,333.53 126.44,326.65 119.00,320.79
             102.63,307.88 86.73,293.73 72.00,279.00 Z
           M 292.00,4.44
           C 331.81,-0.66 359.63,41.82 338.53,76.00
             335.71,80.57 330.36,86.09 326.00,89.21
             318.90,94.30 311.50,96.36 303.00,97.35
             298.14,98.26 296.69,97.80 292.00,97.35
             266.36,93.45 248.93,70.74 252.29,45.00
             255.16,22.98 270.58,8.45 292.00,4.44 Z
           M 100.00,215.00
           C 100.00,215.00 76.00,214.00 76.00,214.00
             77.39,216.42 79.74,220.63 82.30,221.89
             86.17,223.78 97.80,218.38 100.00,215.00 Z" />
</svg>
