<?xml version="1.0" encoding="UTF-8" standalone="no"?>
<!DOCTYPE svg PUBLIC "-//W3C//DTD SVG 20010904//EN"
              "http://www.w3.org/TR/2001/REC-SVG-20010904/DTD/svg10.dtd">

<svg xmlns="http://www.w3.org/2000/svg"
     width="1.70667in" height="1.70667in"
     viewBox="0 0 512 512">
  <path id="Auswahl"
        fill="#333" stroke="#333" stroke-width="1"
        d="M 248.00,1.42
           C 257.04,0.32 265.96,1.90 275.00,2.00
             291.23,2.19 320.38,8.79 336.00,14.00
             363.32,23.11 388.09,35.67 411.00,53.23
             468.02,96.95 504.01,161.48 510.96,233.00
             510.96,233.00 510.96,243.00 510.96,243.00
             510.96,243.00 512.00,253.00 512.00,253.00
             512.45,291.86 503.90,330.69 487.69,366.00
             462.75,420.32 417.14,464.52 363.00,489.31
             344.06,497.98 309.63,509.56 289.00,510.13
             289.00,510.13 278.00,510.13 278.00,510.13
             278.00,510.13 270.00,510.13 270.00,510.13
             270.00,510.13 255.00,509.00 255.00,509.00
             255.00,509.00 220.00,508.20 220.00,508.20
             220.00,508.20 211.00,508.20 211.00,508.20
             204.90,508.11 194.07,505.15 188.00,503.42
             168.46,497.85 157.20,493.35 139.00,484.25
             75.98,452.73 27.73,392.90 9.15,325.00
             4.35,307.46 2.15,290.05 0.91,272.00
             0.91,272.00 0.00,260.00 0.00,260.00
             0.00,260.00 0.00,253.00 0.00,253.00
             0.00,253.00 1.04,243.00 1.04,243.00
             1.04,243.00 1.04,233.00 1.04,233.00
             1.04,233.00 5.45,205.00 5.45,205.00
             20.82,128.63 72.84,61.22 143.00,27.26
             161.35,18.37 184.94,10.00 205.00,6.26
             205.00,6.26 233.00,2.17 233.00,2.17
             233.00,2.17 248.00,1.42 248.00,1.42 Z
           M 287.00,496.00
           C 287.00,496.00 298.00,494.29 298.00,494.29
             323.73,490.82 346.94,481.97 370.00,470.24
             392.58,458.77 414.88,441.47 432.09,423.00
             477.26,374.49 498.77,314.88 498.00,249.00
             498.00,249.00 496.15,229.00 496.15,229.00
             490.41,180.97 472.12,138.18 441.08,101.00
             441.08,101.00 426.91,85.17 426.91,85.17
             403.36,62.30 375.52,44.20 345.00,32.20
             322.29,23.28 298.33,17.69 274.00,15.91
             274.00,15.91 264.00,15.00 264.00,15.00
             182.21,14.05 104.99,49.78 57.98,118.00
             51.52,127.37 44.23,138.80 39.26,149.00
             21.26,185.93 13.53,225.11 14.00,266.00
             14.16,279.22 17.88,301.01 21.13,314.00
             37.01,377.57 72.02,425.62 127.00,461.34
             143.12,471.81 160.78,479.92 179.00,486.00
             191.38,490.13 199.78,493.00 213.00,493.00
             213.00,493.00 213.00,397.00 213.00,397.00
             213.00,397.00 214.00,382.00 214.00,382.00
             214.00,382.00 214.00,353.00 214.00,353.00
             214.00,353.00 214.00,323.00 214.00,323.00
             214.00,323.00 212.98,311.60 212.98,311.60
             212.98,311.60 205.00,310.00 205.00,310.00
             205.00,310.00 152.00,310.00 152.00,310.00
             152.00,310.00 152.00,239.00 152.00,239.00
             152.00,239.00 214.00,239.00 214.00,239.00
             214.00,239.00 214.00,200.00 214.00,200.00
             214.00,200.00 214.00,180.00 214.00,180.00
             214.03,160.63 221.29,136.67 234.18,122.00
             251.85,101.90 276.44,92.04 303.00,92.00
             303.00,92.00 321.00,92.00 321.00,92.00
             321.00,92.00 333.00,92.91 333.00,92.91
             333.00,92.91 348.00,93.83 348.00,93.83
             351.04,94.12 356.13,93.52 358.40,95.74
             360.34,97.64 359.99,101.47 360.00,104.00
             360.00,104.00 360.00,158.00 360.00,158.00
             360.00,158.00 316.00,158.84 316.00,158.84
             308.56,159.63 300.86,160.71 295.18,166.21
             288.89,172.31 287.10,181.57 287.00,190.00
             287.00,190.00 287.00,239.00 287.00,239.00
             287.00,239.00 358.00,239.00 358.00,239.00
             358.00,239.00 353.72,270.00 353.72,270.00
             353.72,270.00 349.00,310.00 349.00,310.00
             349.00,310.00 287.00,310.00 287.00,310.00
             287.00,310.00 287.00,496.00 287.00,496.00 Z" />
</svg>
