<?xml version="1.0" encoding="UTF-8" standalone="no"?>
<!DOCTYPE svg PUBLIC "-//W3C//DTD SVG 20010904//EN"
              "http://www.w3.org/TR/2001/REC-SVG-20010904/DTD/svg10.dtd">

<svg xmlns="http://www.w3.org/2000/svg"
     width="7.18056in" height="7.27778in"
     viewBox="0 0 517 524">
  <path id="Auswahl"
        fill="#EA967C" stroke="#EA967C" stroke-width="1"
        d="M 516.00,0.00
           C 515.50,4.24 509.60,12.75 507.31,17.00
             501.93,26.95 497.05,37.31 493.34,48.00
             493.34,48.00 482.88,84.00 482.88,84.00
             474.33,120.08 467.59,157.52 437.00,182.38
             410.02,204.31 372.78,212.83 341.00,226.01
             332.01,229.74 321.18,235.65 313.01,240.95
             313.01,240.95 303.00,248.00 303.00,248.00
             305.99,225.83 315.98,203.71 326.22,184.00
             348.35,141.42 384.77,93.86 424.00,66.00
             414.77,67.73 396.16,79.20 388.00,84.67
             355.86,106.23 328.97,136.83 310.94,171.00
             306.47,179.47 302.20,189.00 298.89,198.00
             296.98,203.18 295.83,209.38 293.00,214.00
             293.00,194.57 293.16,182.35 297.42,163.00
             310.54,103.55 348.36,54.85 404.00,29.31
             428.51,18.05 454.63,11.07 481.00,5.80
             481.00,5.80 516.00,0.00 516.00,0.00 Z
           M 194.00,253.00
           C 194.00,253.00 171.00,250.83 171.00,250.83
             171.00,250.83 149.00,248.15 149.00,248.15
             145.62,247.75 133.79,246.45 131.47,244.83
             129.55,243.49 127.82,239.18 126.86,237.00
             126.86,237.00 118.85,218.00 118.85,218.00
             118.85,218.00 98.28,170.00 98.28,170.00
             98.28,170.00 88.32,147.13 88.32,147.13
             85.02,141.67 80.24,143.81 72.00,137.47
             58.68,127.22 51.03,111.75 51.00,95.00
             51.00,95.00 51.00,89.00 51.00,89.00
             51.04,62.84 69.46,38.69 97.00,39.00
             124.31,39.31 140.97,67.03 140.97,92.00
             140.97,92.00 137.31,117.00 137.31,117.00
             137.31,117.00 144.72,135.00 144.72,135.00
             144.72,135.00 158.85,168.00 158.85,168.00
             158.85,168.00 182.42,223.00 182.42,223.00
             185.79,230.89 192.78,245.19 194.00,253.00 Z
           M 168.00,83.00
           C 195.78,91.05 216.43,95.81 240.00,114.51
             257.37,128.30 272.60,151.19 277.49,173.00
             279.99,184.17 280.00,203.25 280.00,215.00
             280.00,225.14 280.74,238.30 279.00,248.00
             271.48,246.24 263.58,242.39 257.00,238.39
             229.53,221.66 216.69,192.74 208.42,163.00
             203.50,145.29 200.64,126.59 192.33,110.00
             185.05,95.47 176.86,92.59 168.00,83.00 Z
           M 451.00,188.00
           C 451.81,186.92 451.99,186.20 453.41,185.59
             456.68,184.18 469.24,188.44 473.00,189.67
             486.96,194.22 510.66,203.13 516.03,218.00
             517.15,221.08 516.99,223.79 517.00,227.00
             517.00,227.00 517.00,247.00 517.00,247.00
             516.95,280.13 503.62,328.51 490.57,359.00
             454.45,443.43 376.92,513.85 283.00,522.96
             283.00,522.96 274.00,522.96 274.00,522.96
             274.00,522.96 264.00,524.00 264.00,524.00
             227.91,524.42 192.83,516.77 160.00,501.69
             138.68,491.90 111.90,473.12 95.00,456.96
             69.29,432.37 46.18,400.40 31.31,368.00
             16.91,336.64 6.95,303.31 2.85,269.00
             2.85,269.00 1.00,251.00 1.00,251.00
             1.00,251.00 0.00,234.00 0.00,234.00
             -0.06,228.16 -0.21,222.47 2.21,217.00
             8.31,203.21 28.54,195.15 42.00,190.67
             42.00,190.67 64.00,184.37 64.00,184.37
             67.85,183.42 72.11,181.90 76.00,183.00
             69.11,186.32 62.15,190.61 56.00,195.16
             51.67,198.35 47.73,202.04 44.09,206.00
             30.88,220.38 35.80,231.34 51.00,241.30
             68.06,252.49 93.97,260.13 114.00,264.20
             144.70,270.44 175.73,274.68 207.00,276.04
             207.00,276.04 218.00,277.04 218.00,277.04
             218.00,277.04 232.00,277.04 232.00,277.04
             232.00,277.04 244.00,278.00 244.00,278.00
             294.06,278.08 340.54,275.32 390.00,266.92
             412.11,263.16 442.55,255.17 462.00,244.27
             474.77,237.11 487.64,226.40 477.87,211.00
             475.61,207.44 471.13,202.99 468.00,200.09
             462.72,195.19 457.12,191.69 451.00,188.00 Z" />
</svg>
