<?xml version="1.0" encoding="UTF-8" standalone="no"?>
<!DOCTYPE svg PUBLIC "-//W3C//DTD SVG 20010904//EN"
              "http://www.w3.org/TR/2001/REC-SVG-20010904/DTD/svg10.dtd">

<svg xmlns="http://www.w3.org/2000/svg"
     width="1.46333in" height="1.46333in"
     viewBox="0 0 439 439">
  <path id="Auswahl"
        fill="#333" stroke="#333" stroke-width="1"
        d="M 110.00,0.08
           C 110.00,0.08 140.00,0.08 140.00,0.08
             140.00,0.08 195.00,0.08 195.00,0.08
             195.00,0.08 280.00,0.08 280.00,0.08
             280.00,0.08 320.00,0.08 320.00,0.08
             355.56,0.06 392.32,18.51 413.52,47.00
             419.94,55.62 425.36,65.04 429.40,75.00
             434.30,87.10 437.98,101.91 438.00,115.00
             438.00,115.00 438.00,323.00 438.00,323.00
             437.91,383.44 383.44,437.91 323.00,438.00
             323.00,438.00 165.00,438.00 165.00,438.00
             165.00,438.00 115.00,438.00 115.00,438.00
             83.08,437.95 49.98,420.79 29.29,397.00
             14.71,380.24 4.90,358.94 1.44,337.00
             -1.17,320.44 0.00,271.71 0.00,252.00
             0.00,252.00 0.00,163.00 0.00,163.00
             0.00,163.00 0.00,118.00 0.00,118.00
             0.05,85.60 15.59,51.53 40.00,30.29
             48.19,23.16 57.29,17.10 67.00,12.25
             82.55,4.47 93.22,2.86 110.00,0.08 Z
           M 137.00,38.09
           C 137.00,38.09 126.00,39.17 126.00,39.17
             115.72,40.17 104.27,43.77 95.00,48.26
             86.80,52.23 79.99,56.55 73.00,62.44
             54.73,77.83 42.81,100.46 39.43,124.00
             37.08,140.34 38.00,157.50 38.00,174.00
             38.00,174.00 38.00,242.00 38.00,242.00
             38.00,242.00 38.00,279.00 38.00,279.00
             38.00,311.08 39.14,338.11 61.30,364.00
             65.89,369.36 73.27,376.45 79.00,380.57
             111.62,404.00 141.38,400.00 179.00,400.00
             179.00,400.00 300.00,400.00 300.00,400.00
             345.37,399.93 384.18,369.57 396.26,326.00
             398.13,319.22 398.45,312.90 399.10,306.00
             399.64,300.29 400.96,301.58 401.00,293.00
             401.00,293.00 401.00,254.00 401.00,254.00
             401.00,254.00 401.00,144.00 401.00,144.00
             400.98,131.71 399.18,117.69 395.33,106.00
             392.50,97.40 387.77,88.45 382.65,81.00
             368.46,60.33 346.44,45.96 322.00,40.66
             308.14,37.66 291.23,38.00 277.00,38.09
             277.00,38.09 217.00,38.09 217.00,38.09
             217.00,38.09 137.00,38.09 137.00,38.09 Z
           M 332.00,74.52
           C 341.41,73.02 350.15,74.65 356.79,82.04
             369.99,96.73 362.36,122.71 343.00,126.98
             316.73,132.78 300.73,101.00 318.47,82.30
             322.45,78.10 326.52,76.03 332.00,74.52 Z
           M 207.00,106.21
           C 207.00,106.21 223.00,106.21 223.00,106.21
             236.56,106.02 252.76,110.00 265.00,115.78
             280.21,122.96 292.70,132.16 303.70,145.00
             341.99,189.68 337.74,257.38 296.96,298.99
             288.02,308.11 274.70,316.97 263.00,322.14
             249.31,328.19 231.99,332.17 217.00,332.00
             206.62,331.88 192.84,329.33 183.00,326.00
             118.44,304.14 89.51,229.64 118.32,169.00
             123.78,157.51 131.05,147.96 140.00,139.00
             159.99,118.99 179.43,110.59 207.00,106.21 Z
           M 210.00,145.29
           C 173.14,150.92 144.06,178.37 144.00,217.00
             143.95,247.02 157.65,272.08 185.00,285.75
             193.36,289.93 202.58,292.89 212.00,293.00
             229.54,293.20 240.32,292.20 256.00,283.13
             263.40,278.84 271.16,271.63 276.54,265.00
             302.80,232.65 295.14,183.25 262.00,158.76
             247.09,147.74 228.26,143.58 210.00,145.29 Z" />
</svg>
