<?xml version="1.0" encoding="UTF-8" standalone="no"?>
<!DOCTYPE svg PUBLIC "-//W3C//DTD SVG 20010904//EN"
              "http://www.w3.org/TR/2001/REC-SVG-20010904/DTD/svg10.dtd">

<svg xmlns="http://www.w3.org/2000/svg"
     width="2.89333in" height="2.89333in"
     viewBox="0 0 868 868">
  <path id="Auswahl"
        fill="#333" stroke="#333" stroke-width="1"
        d="M 190.00,0.11
           C 190.00,0.11 245.00,0.11 245.00,0.11
             245.00,0.11 351.00,0.11 351.00,0.11
             351.00,0.11 670.00,0.11 670.00,0.11
             670.00,0.11 682.00,1.04 682.00,1.04
             682.00,1.04 691.00,1.04 691.00,1.04
             726.62,4.56 761.30,18.12 790.00,39.48
             833.79,72.06 863.11,124.52 867.09,179.00
             867.09,179.00 868.00,191.00 868.00,191.00
             868.00,191.00 868.00,677.00 868.00,677.00
             867.97,694.41 863.84,716.47 858.33,733.00
             836.69,797.98 785.55,845.81 719.00,862.37
             707.79,865.16 689.45,867.98 678.00,868.00
             678.00,868.00 191.00,868.00 191.00,868.00
             191.00,868.00 170.00,866.15 170.00,866.15
             115.37,859.63 63.25,826.92 33.08,781.00
             15.45,754.17 4.22,723.00 1.04,691.00
             1.04,691.00 1.04,682.00 1.04,682.00
             1.04,682.00 0.00,670.00 0.00,670.00
             0.00,670.00 0.00,328.00 0.00,328.00
             0.00,328.00 0.00,231.00 0.00,231.00
             0.00,201.46 -0.80,176.09 6.47,147.00
             16.19,108.14 38.20,74.37 68.00,47.95
             81.27,36.19 97.88,25.71 114.00,18.31
             132.79,9.68 148.61,5.27 169.00,2.27
             169.00,2.27 190.00,0.11 190.00,0.11 Z
           M 188.00,27.07
           C 188.00,27.07 169.00,29.28 169.00,29.28
             155.54,31.19 138.36,36.65 126.00,42.31
             70.16,67.88 32.81,120.84 27.92,182.00
             27.92,182.00 27.00,194.00 27.00,194.00
             27.00,194.00 27.00,674.00 27.00,674.00
             27.00,674.00 27.91,686.00 27.91,686.00
             32.86,753.67 78.77,811.26 143.00,832.67
             156.47,837.16 174.82,840.98 189.00,841.00
             189.00,841.00 496.00,841.00 496.00,841.00
             496.00,841.00 679.00,841.00 679.00,841.00
             687.32,840.99 697.79,839.43 706.00,837.80
             760.76,826.91 808.95,787.24 829.19,735.00
             835.51,718.69 840.97,696.50 841.00,679.00
             841.00,679.00 841.00,190.00 841.00,190.00
             840.98,175.50 837.26,156.77 832.67,143.00
             811.05,78.14 753.19,32.68 685.00,27.91
             685.00,27.91 673.00,27.07 673.00,27.07
             673.00,27.07 351.00,27.07 351.00,27.07
             351.00,27.07 244.00,27.07 244.00,27.07
             244.00,27.07 188.00,27.07 188.00,27.07 Z
           M 193.00,159.44
           C 211.32,157.09 232.79,160.68 247.00,173.18
             269.47,192.96 274.31,229.70 256.24,254.00
             249.81,262.65 242.61,267.72 233.00,272.22
             222.69,277.04 211.23,278.13 200.00,278.00
             181.32,277.78 163.01,269.19 151.93,254.00
             141.67,239.94 141.81,228.38 142.00,212.00
             142.12,202.13 146.06,191.00 151.79,183.00
             162.04,168.67 176.29,162.53 193.00,159.44 Z
           M 465.00,378.00
           C 470.37,375.23 473.40,369.47 477.29,365.00
             482.82,358.64 489.34,352.60 496.00,347.42
             522.91,326.54 556.13,316.61 590.00,317.00
             602.82,317.15 618.65,320.04 631.00,323.58
             641.17,326.49 653.18,332.17 662.00,338.00
             670.28,343.48 677.55,349.58 684.15,357.00
             709.67,385.66 719.51,422.52 722.09,460.00
             722.09,460.00 723.00,472.00 723.00,472.00
             723.00,472.00 723.00,521.00 723.00,521.00
             723.00,521.00 723.00,566.00 723.00,566.00
             723.00,566.00 723.00,628.00 723.00,628.00
             723.00,628.00 723.00,709.00 723.00,709.00
             723.00,709.00 605.00,709.00 605.00,709.00
             605.00,709.00 605.00,502.00 605.00,502.00
             605.00,502.00 603.96,490.00 603.96,490.00
             603.96,490.00 603.96,480.00 603.96,480.00
             601.39,454.45 592.49,428.23 567.00,417.34
             563.04,415.64 558.25,414.64 554.00,413.92
             526.06,409.22 501.03,423.61 487.51,448.00
             480.87,460.00 478.02,475.38 478.00,489.00
             478.00,489.00 478.00,709.00 478.00,709.00
             478.00,709.00 360.00,709.00 360.00,709.00
             360.00,709.00 360.00,525.00 360.00,525.00
             360.00,525.00 360.00,433.00 360.00,433.00
             360.00,433.00 359.00,418.00 359.00,418.00
             359.00,418.00 359.00,385.00 359.00,385.00
             359.00,385.00 358.00,371.00 358.00,371.00
             358.00,371.00 358.00,358.00 358.00,358.00
             358.00,358.00 357.00,342.00 357.00,342.00
             357.00,342.00 356.00,326.00 356.00,326.00
             356.00,326.00 460.00,326.00 460.00,326.00
             460.00,326.00 465.00,378.00 465.00,378.00 Z
           M 145.00,326.00
           C 145.00,326.00 263.00,326.00 263.00,326.00
             263.00,326.00 263.00,709.00 263.00,709.00
             263.00,709.00 145.00,709.00 145.00,709.00
             145.00,709.00 145.00,326.00 145.00,326.00 Z" />
</svg>
