<?xml version="1.0" encoding="UTF-8" standalone="no"?>
<!DOCTYPE svg PUBLIC "-//W3C//DTD SVG 20010904//EN"
              "http://www.w3.org/TR/2001/REC-SVG-20010904/DTD/svg10.dtd">

<svg xmlns="http://www.w3.org/2000/svg"
     width="8.33333in" height="8.33333in"
     viewBox="0 0 2500 2500">
  <path id="Auswahl"
        fill="#A6181A" stroke="#A6181A" stroke-width="1"
        d="M 1114.00,176.42
           C 1124.80,175.11 1129.53,176.95 1139.00,177.00
             1139.00,177.00 1161.00,177.00 1161.00,177.00
             1161.00,177.00 1178.00,178.00 1178.00,178.00
             1178.00,178.00 1215.00,180.83 1215.00,180.83
             1278.05,186.86 1344.60,199.39 1405.00,218.75
             1405.00,218.75 1416.00,222.66 1416.00,222.66
             1534.43,260.79 1645.06,323.14 1739.00,404.72
             1739.00,404.72 1756.00,419.17 1756.00,419.17
             1756.00,419.17 1773.00,435.99 1773.00,435.99
             1773.00,435.99 1784.00,446.01 1784.00,446.01
             1784.00,446.01 1808.04,471.00 1808.04,471.00
             1830.03,493.99 1851.34,517.75 1870.77,543.00
             1954.00,651.23 2013.15,774.92 2043.65,908.00
             2050.19,936.55 2055.46,964.98 2059.28,994.00
             2059.28,994.00 2062.83,1021.00 2062.83,1021.00
             2062.83,1021.00 2065.09,1053.00 2065.09,1053.00
             2065.09,1053.00 2067.00,1078.00 2067.00,1078.00
             2067.00,1078.00 2067.00,1099.00 2067.00,1099.00
             2067.00,1099.00 2068.00,1114.00 2068.00,1114.00
             2068.00,1114.00 2068.00,1134.00 2068.00,1134.00
             2068.00,1134.00 2067.00,1147.00 2067.00,1147.00
             2067.00,1147.00 2067.00,1166.00 2067.00,1166.00
             2067.00,1166.00 2065.09,1192.00 2065.09,1192.00
             2065.09,1192.00 2062.83,1224.00 2062.83,1224.00
             2062.83,1224.00 2059.28,1251.00 2059.28,1251.00
             2049.37,1326.30 2029.64,1400.53 2001.45,1471.00
             2001.45,1471.00 1993.14,1492.00 1993.14,1492.00
             1971.83,1540.57 1948.07,1587.35 1919.31,1632.00
             1919.31,1632.00 1895.71,1667.00 1895.71,1667.00
             1893.75,1669.76 1887.83,1676.72 1888.53,1680.00
             1889.08,1682.59 1894.03,1687.03 1896.00,1689.00
             1896.00,1689.00 1917.00,1710.00 1917.00,1710.00
             1917.00,1710.00 1994.00,1787.00 1994.00,1787.00
             1994.00,1787.00 2216.00,2009.00 2216.00,2009.00
             2216.00,2009.00 2265.00,2058.00 2265.00,2058.00
             2289.01,2082.01 2304.49,2095.68 2315.92,2129.00
             2323.71,2151.71 2323.27,2167.67 2323.00,2191.00
             2322.86,2202.29 2317.66,2221.44 2313.40,2232.00
             2297.75,2270.75 2265.78,2302.28 2226.00,2315.92
             2203.68,2323.58 2186.98,2323.27 2164.00,2323.00
             2156.44,2322.91 2147.37,2320.72 2140.00,2318.87
             2120.08,2313.90 2100.94,2304.61 2085.00,2291.54
             2085.00,2291.54 2061.00,2268.00 2061.00,2268.00
             2061.00,2268.00 2027.00,2234.00 2027.00,2234.00
             2027.00,2234.00 1778.00,1985.00 1778.00,1985.00
             1778.00,1985.00 1707.00,1914.00 1707.00,1914.00
             1707.00,1914.00 1689.00,1896.00 1689.00,1896.00
             1687.03,1894.03 1682.59,1889.08 1680.00,1888.53
             1677.53,1888.00 1674.91,1890.10 1673.00,1891.43
             1673.00,1891.43 1658.00,1902.02 1658.00,1902.02
             1637.91,1915.93 1617.22,1929.04 1596.00,1941.15
             1525.43,1981.44 1458.15,2010.15 1380.00,2032.43
             1380.00,2032.43 1362.00,2037.63 1362.00,2037.63
             1312.84,2050.07 1257.54,2060.56 1207.00,2064.09
             1207.00,2064.09 1185.00,2066.00 1185.00,2066.00
             1185.00,2066.00 1176.00,2066.00 1176.00,2066.00
             1176.00,2066.00 1164.00,2067.00 1164.00,2067.00
             1164.00,2067.00 1147.00,2067.00 1147.00,2067.00
             1147.00,2067.00 1132.00,2068.00 1132.00,2068.00
             1132.00,2068.00 1114.00,2068.00 1114.00,2068.00
             1114.00,2068.00 1098.00,2067.00 1098.00,2067.00
             1098.00,2067.00 1076.00,2067.00 1076.00,2067.00
             1076.00,2067.00 1066.00,2066.00 1066.00,2066.00
             1066.00,2066.00 1057.00,2066.00 1057.00,2066.00
             1057.00,2066.00 1027.00,2063.17 1027.00,2063.17
             990.78,2059.66 954.58,2054.43 919.00,2046.58
             783.32,2016.61 653.96,1956.61 544.00,1871.50
             544.00,1871.50 484.00,1820.83 484.00,1820.83
             484.00,1820.83 470.00,1807.09 470.00,1807.09
             470.00,1807.09 461.00,1798.99 461.00,1798.99
             461.00,1798.99 436.96,1774.00 436.96,1774.00
             436.96,1774.00 424.09,1761.00 424.09,1761.00
             424.09,1761.00 388.32,1720.00 388.32,1720.00
             346.80,1669.74 306.61,1607.28 277.27,1549.00
             243.09,1481.12 217.34,1409.02 200.35,1335.00
             193.87,1306.77 188.50,1278.72 184.72,1250.00
             184.72,1250.00 182.17,1232.00 182.17,1232.00
             182.17,1232.00 177.96,1176.00 177.96,1176.00
             177.96,1176.00 177.00,1163.00 177.00,1163.00
             177.00,1163.00 177.00,1139.00 177.00,1139.00
             177.00,1139.00 176.00,1121.00 176.00,1121.00
             176.00,1121.00 177.00,1107.00 177.00,1107.00
             177.00,1107.00 177.00,1080.00 177.00,1080.00
             177.00,1080.00 178.91,1054.00 178.91,1054.00
             178.91,1054.00 182.17,1012.00 182.17,1012.00
             182.17,1012.00 184.72,995.00 184.72,995.00
             198.44,890.77 229.99,788.91 277.27,695.00
             312.80,624.43 361.20,552.60 414.17,494.00
             414.17,494.00 440.96,466.00 440.96,466.00
             440.96,466.00 456.00,450.01 456.00,450.01
             456.00,450.01 466.00,440.96 466.00,440.96
             466.00,440.96 483.00,424.09 483.00,424.09
             483.00,424.09 518.00,393.44 518.00,393.44
             638.29,292.50 789.77,221.71 944.00,192.61
             972.17,187.30 1000.51,183.59 1029.00,180.83
             1029.00,180.83 1053.00,178.91 1053.00,178.91
             1053.00,178.91 1063.00,178.00 1063.00,178.00
             1063.00,178.00 1067.00,178.00 1067.00,178.00
             1067.00,178.00 1082.00,177.00 1082.00,177.00
             1082.00,177.00 1114.00,176.42 1114.00,176.42 Z
           M 1095.00,469.14
           C 1095.00,469.14 1054.00,472.28 1054.00,472.28
             1013.42,477.12 973.13,484.24 934.00,496.20
             837.87,525.60 748.62,576.50 675.00,645.09
             642.66,675.22 606.25,718.33 581.34,755.00
             581.34,755.00 559.55,790.00 559.55,790.00
             548.53,808.38 538.24,827.50 529.31,847.00
             499.59,911.89 479.06,983.89 472.17,1055.00
             472.17,1055.00 470.91,1075.00 470.91,1075.00
             470.91,1075.00 469.00,1101.00 469.00,1101.00
             469.00,1101.00 469.00,1144.00 469.00,1144.00
             469.00,1144.00 470.00,1160.00 470.00,1160.00
             470.00,1160.00 470.91,1171.00 470.91,1171.00
             472.50,1194.24 475.44,1217.05 479.58,1240.00
             495.52,1328.41 530.84,1414.65 581.34,1489.00
             624.80,1552.98 677.81,1606.48 740.00,1652.27
             792.21,1690.70 853.58,1721.04 915.00,1741.51
             959.21,1756.25 996.78,1764.61 1043.00,1770.15
             1043.00,1770.15 1088.00,1774.09 1088.00,1774.09
             1088.00,1774.09 1098.00,1775.00 1098.00,1775.00
             1098.00,1775.00 1145.00,1775.00 1145.00,1775.00
             1145.00,1775.00 1165.00,1774.00 1165.00,1774.00
             1165.00,1774.00 1175.00,1773.09 1175.00,1773.09
             1175.00,1773.09 1203.00,1770.15 1203.00,1770.15
             1225.51,1767.46 1247.90,1763.92 1270.00,1758.77
             1304.89,1750.62 1350.32,1735.68 1383.00,1721.14
             1383.00,1721.14 1421.00,1702.75 1421.00,1702.75
             1486.55,1669.98 1556.49,1616.67 1605.05,1562.00
             1605.05,1562.00 1644.11,1515.00 1644.11,1515.00
             1690.43,1453.24 1726.51,1382.03 1748.56,1308.00
             1781.32,1198.01 1783.55,1079.50 1757.12,968.00
             1757.12,968.00 1741.35,915.00 1741.35,915.00
             1713.18,830.49 1669.55,754.53 1610.16,688.00
             1610.16,688.00 1598.91,675.00 1598.91,675.00
             1598.91,675.00 1566.00,642.91 1566.00,642.91
             1547.36,625.63 1527.67,608.96 1507.00,594.14
             1448.97,552.54 1385.41,519.45 1317.00,498.57
             1266.61,483.19 1223.63,474.53 1171.00,470.91
             1171.00,470.91 1143.00,469.14 1143.00,469.14
             1143.00,469.14 1095.00,469.14 1095.00,469.14 Z" />
</svg>
