<?xml version="1.0" encoding="UTF-8" standalone="no"?>
<!DOCTYPE svg PUBLIC "-//W3C//DTD SVG 20010904//EN"
              "http://www.w3.org/TR/2001/REC-SVG-20010904/DTD/svg10.dtd">

<svg xmlns="http://www.w3.org/2000/svg"
     width="5.84722in" height="4.63889in"
     viewBox="0 0 421 334">
  <path id="Auswahl"
        fill="#EA967C" stroke="#EA967C" stroke-width="1"
        d="M 45.00,0.26
           C 47.36,0.14 48.56,-0.05 51.00,0.26
             66.47,0.97 81.27,8.12 90.23,21.00
             108.49,47.28 97.89,85.84 67.00,96.66
             61.70,98.51 53.60,100.23 48.00,99.91
             6.72,97.55 -15.39,50.01 11.32,18.00
             20.74,6.71 30.99,2.72 45.00,0.26 Z
           M 209.00,236.00
           C 209.00,236.00 256.00,201.13 256.00,201.13
             256.00,201.13 269.00,191.55 269.00,191.55
             269.00,191.55 287.00,182.75 287.00,182.75
             287.00,182.75 348.00,152.75 348.00,152.75
             348.00,152.75 386.00,133.64 386.00,133.64
             397.19,128.63 412.21,131.76 418.35,143.00
             423.52,152.47 421.13,165.23 413.82,172.91
             410.10,176.81 403.66,180.38 399.00,183.32
             399.00,183.32 337.00,222.32 337.00,222.32
             337.00,222.32 305.00,243.18 305.00,243.18
             305.00,243.18 271.00,274.91 271.00,274.91
             271.00,274.91 248.00,296.04 248.00,296.04
             241.88,301.90 220.56,322.68 215.00,326.19
             211.59,328.35 207.77,329.26 204.00,330.51
             200.48,331.69 197.75,332.86 194.00,333.54
             181.06,335.87 165.30,333.12 154.00,326.40
             141.27,318.82 132.67,306.36 123.60,295.00
             123.60,295.00 78.60,238.00 78.60,238.00
             78.60,238.00 52.58,205.00 52.58,205.00
             38.38,186.81 29.30,176.31 29.34,152.00
             29.36,139.30 36.00,123.32 46.00,115.39
             50.77,111.61 58.34,108.76 64.00,106.42
             72.27,103.01 84.92,100.88 94.00,99.00
             94.00,99.00 158.00,85.23 158.00,85.23
             158.00,85.23 213.00,59.31 213.00,59.31
             213.00,59.31 224.00,54.25 224.00,54.25
             229.14,51.68 247.51,42.56 252.00,41.53
             261.96,39.24 273.12,42.81 278.25,52.00
             279.78,54.76 280.66,57.87 280.91,61.00
             282.59,82.03 267.22,85.16 252.00,92.75
             252.00,92.75 209.00,113.26 209.00,113.26
             209.00,113.26 175.00,129.11 175.00,129.11
             175.00,129.11 133.00,138.00 133.00,138.00
             133.00,138.00 149.12,159.00 149.12,159.00
             149.12,159.00 187.80,208.00 187.80,208.00
             187.80,208.00 209.00,236.00 209.00,236.00 Z" />
</svg>
