<?xml version="1.0" encoding="UTF-8" standalone="no"?>
<!DOCTYPE svg PUBLIC "-//W3C//DTD SVG 20010904//EN"
              "http://www.w3.org/TR/2001/REC-SVG-20010904/DTD/svg10.dtd">

<svg xmlns="http://www.w3.org/2000/svg"
     width="1.02in" height="1.11333in"
     viewBox="0 0 306 334">
  <path id="Auswahl"
        fill="rgba(166, 24, 26, 0.9)" stroke="rgba(166, 24, 26, 0.9)" stroke-width="1"
        d="M 0.00,0.00
           C 0.00,0.00 50.00,15.98 50.00,15.98
             67.76,21.49 85.90,26.87 102.00,36.45
             122.90,48.89 139.25,68.58 146.28,92.00
             150.13,104.82 150.15,113.90 150.00,127.00
             149.92,133.94 148.14,142.40 146.00,149.00
             142.24,145.82 133.26,134.46 131.39,130.00
             129.19,124.75 127.01,102.34 127.00,96.00
             126.99,90.64 127.47,85.19 126.00,80.00
             123.53,93.80 123.17,108.10 125.00,122.00
             120.89,119.05 108.41,106.38 106.74,102.00
             106.74,102.00 104.00,62.00 104.00,62.00
             104.00,62.00 101.76,87.00 101.76,87.00
             101.76,87.00 101.76,98.00 101.76,98.00
             101.76,98.00 78.00,78.00 78.00,78.00
             78.00,78.00 97.00,102.00 97.00,102.00
             88.38,98.69 71.99,93.17 63.00,95.00
             63.00,95.00 92.00,103.86 92.00,103.86
             92.00,103.86 103.54,109.64 103.54,109.64
             103.54,109.64 121.00,133.00 121.00,133.00
             109.95,130.48 90.82,121.96 80.00,125.00
             86.78,125.96 95.42,128.80 102.00,131.00
             117.29,136.10 128.90,138.51 135.00,155.00
             130.33,156.18 125.83,156.94 121.00,157.00
             111.49,157.11 102.18,156.16 93.00,153.57
             85.65,151.50 78.57,148.46 72.00,144.55
             30.96,120.08 29.20,76.46 15.67,36.00
             13.17,28.53 10.18,21.09 6.74,14.00
             6.74,14.00 0.00,0.00 0.00,0.00 Z
           M 155.00,170.00
           C 159.39,157.35 166.83,141.67 173.42,130.00
             173.42,130.00 185.16,110.00 185.16,110.00
             185.16,110.00 187.42,92.00 187.42,92.00
             189.57,80.21 195.14,68.47 202.43,59.00
             205.86,54.53 207.81,51.47 213.00,49.00
             210.98,64.01 206.85,75.21 201.00,89.00
             201.00,89.00 217.00,72.00 217.00,72.00
             217.00,72.00 203.01,95.00 203.01,95.00
             194.32,109.76 180.38,135.79 176.00,152.00
             176.00,152.00 191.00,145.00 191.00,145.00
             188.28,140.82 190.44,137.28 192.29,133.00
             196.70,122.78 202.71,114.99 212.00,108.75
             234.68,93.50 258.37,99.17 283.00,104.58
             288.94,105.88 301.19,107.54 306.00,110.00
             298.58,114.57 290.29,121.02 284.00,127.04
             284.00,127.04 270.96,140.96 270.96,140.96
             259.17,152.75 242.49,163.99 225.00,162.68
             220.44,162.33 215.38,161.59 211.00,160.28
             203.05,157.89 199.76,155.50 193.00,151.00
             193.00,151.00 193.00,149.00 193.00,149.00
             193.00,149.00 203.00,145.63 203.00,145.63
             203.00,145.63 227.00,148.00 227.00,148.00
             227.00,148.00 207.00,142.00 207.00,142.00
             207.00,142.00 224.00,136.04 224.00,136.04
             224.00,136.04 245.00,138.00 245.00,138.00
             245.00,138.00 228.00,133.00 228.00,133.00
             228.00,133.00 243.00,127.00 243.00,127.00
             243.00,127.00 227.00,130.00 227.00,130.00
             229.10,123.34 233.35,120.06 233.00,113.00
             231.69,117.58 230.24,120.04 227.66,124.00
             221.89,132.84 218.14,133.69 208.00,136.00
             210.53,129.94 215.99,124.76 216.00,118.00
             213.46,123.69 206.52,134.57 201.71,138.30
             201.71,138.30 193.00,143.00 193.00,143.00
             199.05,141.37 210.46,135.18 216.00,137.00
             205.63,141.47 195.66,146.77 186.00,152.60
             182.44,154.75 175.11,158.96 172.84,162.18
             171.03,164.75 169.10,172.61 168.14,176.00
             168.14,176.00 161.25,206.00 161.25,206.00
             152.99,253.58 155.14,286.93 164.00,334.00
             164.00,334.00 144.00,334.00 144.00,334.00
             142.01,334.00 138.19,334.23 136.60,332.98
             134.97,331.69 134.98,328.90 134.72,327.00
             134.72,327.00 133.00,309.00 133.00,309.00
             132.57,271.90 133.20,249.70 141.42,213.00
             141.42,213.00 147.58,191.00 147.58,191.00
             148.48,187.91 150.27,183.07 149.71,180.00
             149.13,176.80 142.37,164.40 140.42,161.00
             140.42,161.00 121.28,130.00 121.28,130.00
             117.83,125.06 109.06,113.58 107.00,109.00
             120.28,118.51 137.32,141.89 146.31,156.00
             146.31,156.00 155.00,170.00 155.00,170.00 Z
           M 78.00,77.00
           C 78.00,77.00 77.00,77.00 77.00,77.00
             77.00,77.00 78.00,78.00 78.00,78.00
             78.00,78.00 78.00,77.00 78.00,77.00 Z
           M 235.00,112.00
           C 235.00,112.00 234.00,112.00 234.00,112.00
             234.00,112.00 235.00,113.00 235.00,113.00
             235.00,113.00 235.00,112.00 235.00,112.00 Z" />
</svg>
