<?xml version="1.0" encoding="UTF-8" standalone="no"?>
<!DOCTYPE svg PUBLIC "-//W3C//DTD SVG 20010904//EN"
              "http://www.w3.org/TR/2001/REC-SVG-20010904/DTD/svg10.dtd">

<svg xmlns="http://www.w3.org/2000/svg"
     width="0.563333in" height="0.563333in"
     viewBox="0 0 169 169">
  <path id="Auswahl"
        fill="rgba(166, 24, 26, 0.9)" stroke="rgba(166, 24, 26, 0.9)" stroke-width="1"
        d="M 16.00,0.16
           C 16.00,0.16 61.00,0.16 61.00,0.16
             61.00,0.16 145.00,0.16 145.00,0.16
             162.23,0.03 168.97,6.77 169.00,24.00
             169.00,24.00 169.00,145.00 169.00,145.00
             168.97,162.23 162.23,168.97 145.00,169.00
             145.00,169.00 24.00,169.00 24.00,169.00
             6.77,168.97 0.03,162.23 0.00,145.00
             0.00,145.00 0.00,23.00 0.00,23.00
             0.06,11.00 3.55,3.44 16.00,0.16 Z
           M 150.00,19.00
           C 150.00,19.00 19.00,19.00 19.00,19.00
             19.00,19.00 19.00,150.00 19.00,150.00
             19.00,150.00 150.00,150.00 150.00,150.00
             150.00,150.00 150.00,19.00 150.00,19.00 Z
           M 79.00,45.53
           C 86.40,44.31 93.09,44.95 98.82,50.33
             111.94,62.65 103.88,85.12 86.00,86.67
             62.22,88.73 54.10,53.29 79.00,45.53 Z
           M 42.00,131.00
           C 43.33,125.55 42.22,120.58 46.23,116.09
             50.42,111.39 57.09,108.69 63.00,106.74
             77.47,102.46 90.48,102.29 105.00,106.74
             111.49,108.51 119.34,111.50 123.57,117.04
             126.62,121.04 125.86,126.29 127.00,131.00
             127.00,131.00 42.00,131.00 42.00,131.00 Z" />
</svg>
