<?xml version="1.0" encoding="UTF-8" standalone="no"?>
<!DOCTYPE svg PUBLIC "-//W3C//DTD SVG 20010904//EN"
              "http://www.w3.org/TR/2001/REC-SVG-20010904/DTD/svg10.dtd">

<svg xmlns="http://www.w3.org/2000/svg"
     width="5.41667in" height="5.94444in"
     viewBox="0 0 390 428">
  <path id="Psychotherapie"
        fill="#EA967C" stroke="#EA967C" stroke-width="1"
        d="M 256.00,362.85
           C 256.00,362.85 256.00,402.00 256.00,402.00
             256.00,407.52 256.76,416.25 253.91,420.96
             250.66,426.34 244.71,426.93 239.00,427.00
             239.00,427.00 149.00,427.00 149.00,427.00
             149.00,427.00 80.00,427.00 80.00,427.00
             66.53,426.93 64.02,420.22 64.00,408.00
             64.00,408.00 64.00,346.00 64.00,346.00
             63.79,328.31 56.87,307.93 47.58,293.00
             47.58,293.00 25.20,261.00 25.20,261.00
             10.53,236.70 3.64,215.12 0.83,187.00
             0.83,187.00 0.00,178.00 0.00,178.00
             -0.32,150.39 3.72,125.30 15.31,100.00
             23.37,82.40 35.47,64.81 49.01,51.00
             100.28,-1.29 179.34,-13.07 245.00,17.31
             263.88,26.04 280.54,39.20 294.99,54.00
             310.97,70.38 325.16,94.23 332.33,116.00
             332.33,116.00 340.61,149.00 340.61,149.00
             340.61,149.00 362.34,184.00 362.34,184.00
             362.34,184.00 383.32,217.00 383.32,217.00
             386.03,221.30 390.66,227.69 389.39,233.00
             387.94,239.06 382.07,240.97 377.00,243.15
             377.00,243.15 352.00,253.85 352.00,253.85
             349.28,255.02 343.57,256.99 342.02,259.39
             340.78,261.32 341.00,264.74 341.00,267.00
             341.00,267.00 341.00,323.00 341.00,323.00
             340.93,328.64 340.02,332.83 337.69,338.00
             331.95,350.73 320.88,360.03 307.00,362.85
             307.00,362.85 286.00,362.85 286.00,362.85
             286.00,362.85 256.00,362.85 256.00,362.85 Z
           M 192.00,150.00
           C 192.00,150.00 192.00,130.00 192.00,130.00
             191.73,107.91 168.07,100.50 155.19,114.09
             146.84,122.90 149.00,138.58 149.00,150.00
             149.00,150.00 129.00,150.00 129.00,150.00
             115.87,150.16 106.74,158.62 107.02,172.00
             107.13,177.33 108.49,181.92 112.21,185.90
             120.87,195.14 137.33,193.00 149.00,193.00
             149.00,203.00 147.43,217.56 152.97,225.99
             161.89,239.56 183.22,237.50 190.08,223.00
             193.13,216.56 192.00,200.68 192.00,193.00
             201.60,193.00 217.02,194.50 225.00,189.15
             239.07,179.70 237.59,158.91 222.00,151.90
             215.22,148.86 199.93,150.00 192.00,150.00 Z" />
</svg>
