<?xml version="1.0" encoding="UTF-8" standalone="no"?>
<!DOCTYPE svg PUBLIC "-//W3C//DTD SVG 20010904//EN"
              "http://www.w3.org/TR/2001/REC-SVG-20010904/DTD/svg10.dtd">

<svg xmlns="http://www.w3.org/2000/svg"
     width="1.9in" height="1.2in"
     viewBox="0 0 570 360">
  <path id="Auswahl"
        fill="var(--heavy-red-default)" stroke="var(--heavy-red-default)" stroke-width="1"
        d="M 149.00,256.00
           C 149.00,256.00 137.00,256.92 137.00,256.92
             137.00,256.92 112.00,254.20 112.00,254.20
             75.31,247.11 43.06,223.61 24.86,191.00
             -2.68,141.63 5.86,78.65 45.28,38.17
             59.34,23.73 76.95,13.07 96.00,6.67
             106.26,3.22 121.20,0.13 132.00,0.00
             188.77,-0.66 237.70,29.79 257.77,84.00
             266.41,107.34 267.28,132.43 267.00,157.00
             266.84,170.03 263.02,190.37 259.42,203.00
             241.79,264.78 200.57,313.80 142.00,340.69
             118.80,351.34 85.58,359.96 60.00,360.00
             60.00,360.00 42.00,360.00 42.00,360.00
             33.57,359.90 6.96,356.58 0.00,353.00
             48.34,344.19 84.86,327.14 120.00,292.00
             130.11,281.89 141.99,268.48 149.00,256.00 Z
           M 452.00,256.00
           C 452.00,256.00 441.00,256.91 441.00,256.91
             441.00,256.91 424.00,255.71 424.00,255.71
             387.87,251.27 353.15,230.53 333.08,200.00
             296.17,143.85 307.89,66.80 362.00,25.90
             372.59,17.90 385.42,11.20 398.00,7.00
             408.98,3.34 423.42,0.14 435.00,0.00
             450.82,-0.18 464.88,1.30 480.00,6.33
             492.93,10.64 501.70,15.05 513.00,22.67
             549.22,47.08 565.99,84.56 569.09,127.00
             569.09,127.00 570.00,139.00 570.00,139.00
             570.04,166.61 567.44,188.61 558.65,215.00
             537.55,278.28 485.41,329.31 422.00,349.66
             395.35,358.20 372.74,360.32 345.00,360.00
             336.57,359.90 309.96,356.58 303.00,353.00
             367.64,341.23 415.23,311.16 452.00,256.00 Z" />
</svg>
