<?xml version="1.0" encoding="UTF-8" standalone="no"?>
<!DOCTYPE svg PUBLIC "-//W3C//DTD SVG 20010904//EN"
              "http://www.w3.org/TR/2001/REC-SVG-20010904/DTD/svg10.dtd">

<svg xmlns="http://www.w3.org/2000/svg"
     width="1.70667in" height="1.70667in"
     viewBox="0 0 512 512">
  <path id="Auswahl"
        fill="rgba(166, 24, 26, 0.9)" stroke="rgba(166, 24, 26, 0.9)" stroke-width="1"
        d="M 366.00,62.00
           C 366.00,62.00 397.00,62.00 397.00,62.00
             401.08,62.00 408.42,61.56 412.00,63.01
             420.40,66.41 421.99,72.94 422.00,81.00
             422.00,81.00 422.00,252.00 422.00,252.00
             422.02,264.47 425.65,261.04 437.00,271.17
             447.35,280.41 455.00,289.25 462.32,301.00
             491.58,347.96 483.71,411.78 444.99,451.00
             402.86,493.66 333.24,499.45 285.00,463.62
             273.10,454.79 265.48,447.25 257.02,435.00
             245.79,418.72 249.76,416.03 237.00,416.00
             237.00,416.00 80.00,416.00 80.00,416.00
             80.00,416.00 47.00,416.00 47.00,416.00
             43.07,415.98 39.44,416.01 36.22,413.35
             31.87,409.75 32.01,404.12 32.00,399.00
             32.00,399.00 32.00,140.00 32.00,140.00
             32.00,140.00 32.00,81.00 32.00,81.00
             32.17,67.16 38.74,62.02 52.00,62.00
             52.00,62.00 81.00,62.00 81.00,62.00
             91.15,61.81 88.78,57.70 89.00,41.00
             89.24,23.55 106.92,21.47 114.79,29.22
             120.67,35.01 118.95,45.30 119.00,53.00
             119.02,55.73 118.73,59.25 121.31,60.98
             123.58,62.49 131.97,62.00 135.00,62.00
             135.00,62.00 169.00,62.00 169.00,62.00
             169.00,62.00 335.00,62.00 335.00,62.00
             335.00,62.00 335.00,43.00 335.00,43.00
             335.06,38.23 335.58,34.13 338.80,30.33
             344.78,23.26 356.22,23.26 362.20,30.33
             367.77,36.90 366.00,53.40 366.00,62.00 Z
           M 72.13,168.22
           C 70.90,169.07 70.35,168.88 69.57,170.43
             68.61,172.34 69.00,185.92 69.00,189.00
             69.00,189.00 69.00,212.00 69.00,212.00
             69.01,213.82 68.85,216.92 70.02,218.40
             71.59,220.38 75.70,220.00 78.00,220.00
             78.00,220.00 108.00,220.00 108.00,220.00
             110.48,220.00 117.47,220.45 119.26,219.01
             121.38,217.30 121.00,212.50 121.00,210.00
             121.00,210.00 121.00,182.00 121.00,182.00
             121.00,179.22 121.42,172.48 119.98,170.31
             118.40,167.95 115.52,168.05 113.00,168.22
             113.00,168.22 72.13,168.22 72.13,168.22 Z
           M 160.15,168.60
           C 156.29,171.29 157.01,173.62 157.00,178.00
             157.00,178.00 157.00,207.00 157.00,207.00
             157.00,209.54 156.56,216.55 158.02,218.40
             159.59,220.38 163.70,220.00 166.00,220.00
             166.00,220.00 196.00,220.00 196.00,220.00
             198.54,220.00 205.55,220.44 207.40,218.98
             209.38,217.41 209.00,213.30 209.00,211.00
             209.00,211.00 209.00,182.00 209.00,182.00
             209.00,179.22 209.42,172.48 207.98,170.31
             206.40,167.95 203.52,168.05 201.00,168.00
             201.00,168.00 160.15,168.60 160.15,168.60 Z
           M 249.11,168.22
           C 244.45,170.66 245.02,173.29 245.00,178.00
             245.00,178.00 245.00,210.00 245.00,210.00
             245.01,212.54 244.68,216.48 246.60,218.40
             248.52,220.32 252.46,219.99 255.00,220.00
             255.00,220.00 284.00,220.00 284.00,220.00
             286.54,220.00 293.55,220.44 295.40,218.98
             297.38,217.41 297.00,213.30 297.00,211.00
             297.00,211.00 297.00,181.00 297.00,181.00
             297.00,178.52 297.45,171.53 296.01,169.74
             294.52,167.89 291.15,168.03 289.00,168.22
             289.00,168.22 249.11,168.22 249.11,168.22 Z
           M 337.15,168.60
           C 333.29,171.29 334.01,173.62 334.00,178.00
             334.00,178.00 334.00,207.00 334.00,207.00
             334.00,209.54 333.56,216.55 335.02,218.40
             336.59,220.38 340.70,220.00 343.00,220.00
             343.00,220.00 373.00,220.00 373.00,220.00
             375.48,220.00 382.47,220.45 384.26,219.01
             386.38,217.30 386.00,212.50 386.00,210.00
             386.00,210.00 386.00,182.00 386.00,182.00
             386.00,179.22 386.42,172.48 384.98,170.31
             383.40,167.95 380.52,168.05 378.00,168.00
             378.00,168.00 337.15,168.60 337.15,168.60 Z
           M 71.31,248.60
           C 68.32,251.12 69.01,253.28 69.00,257.00
             69.00,257.00 69.00,287.00 69.00,287.00
             69.00,289.54 68.56,296.55 70.02,298.40
             71.59,300.38 75.70,300.00 78.00,300.00
             78.00,300.00 111.00,300.00 111.00,300.00
             113.54,299.99 117.48,300.32 119.40,298.40
             121.32,296.48 120.99,292.54 121.00,290.00
             121.00,290.00 121.00,262.00 121.00,262.00
             121.00,259.22 121.42,252.48 119.98,250.31
             118.40,247.95 115.52,248.05 113.00,248.00
             113.00,248.00 87.00,248.00 87.00,248.00
             82.18,248.00 75.88,247.49 71.31,248.60 Z
           M 160.15,248.60
           C 156.29,251.29 157.01,253.62 157.00,258.00
             157.00,258.00 157.00,290.00 157.00,290.00
             157.01,292.54 156.68,296.48 158.60,298.40
             160.52,300.32 164.46,299.99 167.00,300.00
             167.00,300.00 196.00,300.00 196.00,300.00
             198.54,300.00 205.55,300.44 207.40,298.98
             209.38,297.41 209.00,293.30 209.00,291.00
             209.00,291.00 209.00,262.00 209.00,262.00
             209.00,259.22 209.42,252.48 207.98,250.31
             206.40,247.95 203.52,248.05 201.00,248.00
             201.00,248.00 160.15,248.60 160.15,248.60 Z
           M 353.00,266.00
           C 353.00,266.00 338.00,268.21 338.00,268.21
             322.71,271.44 300.53,280.30 291.00,293.00
             293.20,295.20 301.21,302.84 302.26,305.00
             303.93,308.43 301.12,310.93 298.00,309.83
             293.97,308.41 289.01,300.20 285.01,300.20
             281.14,300.20 275.34,309.84 273.45,313.00
             264.83,327.46 259.77,344.19 259.00,361.07
             259.00,361.07 274.98,361.07 274.98,361.07
             277.41,361.54 280.10,362.93 278.83,365.87
             276.87,370.44 263.41,369.00 259.00,369.00
             259.76,385.56 265.10,402.94 273.81,417.00
             275.58,419.85 281.70,429.80 285.09,429.80
             288.85,429.80 294.32,421.53 298.00,419.74
             301.43,418.07 303.93,420.88 302.83,424.00
             302.83,424.00 291.00,438.00 291.00,438.00
             308.95,452.57 329.42,462.79 353.21,463.00
             353.00,459.90 352.76,449.33 353.21,447.04
             354.12,444.67 356.04,442.29 358.79,443.40
             363.40,445.27 362.00,458.67 362.00,463.00
             381.59,462.82 411.40,452.22 424.00,437.00
             424.00,437.00 413.45,426.00 413.45,426.00
             412.33,424.38 411.24,422.29 412.71,420.49
             414.59,418.17 417.20,419.78 419.00,421.19
             421.73,423.34 427.15,430.69 430.83,429.66
             433.78,428.84 439.53,419.79 441.31,417.00
             450.10,403.16 455.25,385.34 456.00,368.84
             456.00,368.84 440.02,368.84 440.02,368.84
             437.91,368.13 435.64,366.65 436.05,364.13
             436.45,361.70 439.01,361.24 441.02,361.03
             441.02,361.03 456.00,361.03 456.00,361.03
             455.64,344.62 449.98,326.97 441.55,313.00
             439.64,309.84 433.88,300.20 429.99,300.20
             425.99,300.20 421.03,308.41 417.00,309.83
             413.88,310.93 411.07,308.43 412.74,305.00
             412.74,305.00 424.00,292.00 424.00,292.00
             411.43,280.02 396.79,272.87 380.00,268.88
             380.00,268.88 361.84,266.00 361.84,266.00
             361.84,266.00 361.84,281.98 361.84,281.98
             361.05,284.41 359.05,287.05 356.22,285.83
             351.63,283.85 353.00,270.39 353.00,266.00 Z
           M 355.31,309.04
           C 362.35,306.95 361.99,313.00 362.00,318.00
             362.00,318.00 362.00,346.00 362.00,346.00
             362.11,351.55 365.66,357.28 371.09,359.40
             372.93,360.12 375.99,360.00 378.00,360.00
             378.00,360.00 399.00,360.00 399.00,360.00
             402.38,360.07 408.24,360.90 407.04,365.86
             406.15,369.54 400.87,368.99 398.00,369.00
             398.00,369.00 378.00,369.00 378.00,369.00
             375.56,369.00 372.50,368.78 370.32,370.01
             367.18,371.79 365.86,376.25 359.00,376.89
             357.18,377.06 354.71,376.92 353.00,376.26
             351.15,375.55 349.59,374.37 348.28,372.89
             339.53,363.10 350.67,354.27 351.98,351.83
             353.00,349.93 352.96,348.08 353.00,346.00
             353.00,346.00 353.00,321.00 353.00,321.00
             353.00,316.50 352.07,312.47 355.31,309.04 Z
           M 71.31,328.60
           C 68.32,331.12 69.01,333.28 69.00,337.00
             69.00,337.00 69.00,367.00 69.00,367.00
             69.00,369.48 68.55,376.47 69.99,378.26
             71.70,380.38 76.50,380.00 79.00,380.00
             79.00,380.00 111.00,380.00 111.00,380.00
             113.54,379.99 117.48,380.32 119.40,378.40
             121.32,376.48 120.99,372.54 121.00,370.00
             121.00,370.00 121.00,342.00 121.00,342.00
             121.00,339.22 121.42,332.48 119.98,330.31
             118.40,327.95 115.52,328.05 113.00,328.00
             113.00,328.00 87.00,328.00 87.00,328.00
             82.18,328.00 75.88,327.49 71.31,328.60 Z
           M 159.31,328.60
           C 156.32,331.12 157.01,333.28 157.00,337.00
             157.00,337.00 157.00,370.00 157.00,370.00
             157.01,372.54 156.68,376.48 158.60,378.40
             160.52,380.32 164.46,379.99 167.00,380.00
             167.00,380.00 199.00,380.00 199.00,380.00
             201.54,379.99 205.48,380.32 207.40,378.40
             209.32,376.48 208.99,372.54 209.00,370.00
             209.00,370.00 209.00,341.00 209.00,341.00
             209.00,338.46 209.44,331.45 207.98,329.60
             206.51,327.74 203.13,328.02 201.00,328.00
             201.00,328.00 159.31,328.60 159.31,328.60 Z" />
</svg>
