<?xml version="1.0" encoding="UTF-8" standalone="no"?>
<!DOCTYPE svg PUBLIC "-//W3C//DTD SVG 20010904//EN"
              "http://www.w3.org/TR/2001/REC-SVG-20010904/DTD/svg10.dtd">

<svg xmlns="http://www.w3.org/2000/svg"
     width="6.22222in" height="6.15278in"
     viewBox="0 0 448 443">
  <path id="Auswahl"
        fill="#EA967C" stroke="#EA967C" stroke-width="1"
        d="M 214.00,237.00
           C 214.00,237.00 204.67,209.00 204.67,209.00
             204.67,209.00 184.66,150.00 184.66,150.00
             180.65,138.45 174.58,128.40 161.00,127.39
             152.71,126.77 145.38,131.92 140.33,138.00
             140.33,138.00 111.42,184.00 111.42,184.00
             108.89,188.09 102.99,199.74 98.90,201.40
             97.13,202.12 93.95,202.00 92.00,202.00
             92.00,202.00 28.00,202.00 28.00,202.00
             25.96,202.00 22.37,202.26 20.70,201.01
             18.51,199.36 15.35,187.23 14.43,184.00
             9.64,167.21 6.80,145.44 7.00,128.00
             7.00,128.00 7.91,118.00 7.91,118.00
             10.01,89.28 19.65,59.03 40.09,38.04
             61.20,16.36 99.74,1.05 130.00,1.00
             130.00,1.00 142.00,1.00 142.00,1.00
             161.18,1.03 182.82,8.33 199.00,18.42
             204.59,21.91 211.10,26.78 216.00,31.17
             217.87,32.85 221.44,36.96 224.00,36.96
             226.55,36.96 233.55,29.79 236.00,27.80
             244.28,21.11 254.12,14.64 264.00,10.60
             277.47,5.10 291.32,1.02 306.00,1.00
             306.00,1.00 318.00,1.00 318.00,1.00
             345.53,1.04 379.49,12.71 400.00,31.17
             431.22,59.26 441.47,97.32 441.00,138.00
             440.86,149.31 437.15,172.01 434.00,183.00
             429.67,198.11 430.31,197.98 421.00,198.00
             421.00,198.00 363.00,198.00 363.00,198.00
             354.31,198.00 333.15,196.99 326.00,199.55
             320.54,201.50 317.58,204.77 313.00,208.00
             313.00,208.00 298.05,184.00 298.05,184.00
             295.50,179.93 293.64,176.49 289.96,173.20
             280.79,165.04 268.17,165.04 259.01,173.20
             253.36,178.22 249.39,185.66 245.31,192.00
             245.31,192.00 227.05,220.00 227.05,220.00
             223.61,225.42 219.61,233.87 214.00,237.00 Z
           M 312.00,235.00
           C 315.12,230.34 325.34,217.07 330.09,215.01
             332.78,213.84 336.11,214.00 339.00,214.00
             339.00,214.00 435.00,214.00 435.00,214.00
             437.85,214.01 441.27,213.78 443.79,215.31
             448.80,218.37 448.80,225.63 443.79,228.69
             440.26,230.84 427.69,229.92 423.00,230.00
             414.01,230.17 412.72,236.74 408.77,244.00
             401.51,257.36 392.69,271.63 383.86,284.00
             350.45,330.83 310.54,372.39 267.00,409.87
             267.00,409.87 236.00,435.40 236.00,435.40
             232.36,438.31 227.01,443.56 222.00,442.53
             218.40,441.78 211.08,435.30 208.00,432.75
             208.00,432.75 178.00,407.15 178.00,407.15
             141.13,374.69 101.89,335.59 72.73,296.00
             61.84,281.21 51.55,265.95 42.43,250.00
             38.07,242.38 37.03,234.19 27.00,234.00
             22.20,233.92 7.60,234.82 4.12,232.83
             -1.06,229.84 -0.55,222.98 4.12,219.74
             6.99,217.73 10.66,218.01 14.00,218.00
             14.00,218.00 100.00,218.00 100.00,218.00
             110.37,217.98 109.18,217.00 117.95,203.00
             117.95,203.00 143.20,162.00 143.20,162.00
             146.59,156.42 152.74,143.09 160.00,143.41
             163.98,143.59 166.40,146.65 167.89,150.00
             167.89,150.00 175.95,173.00 175.95,173.00
             175.95,173.00 197.00,235.00 197.00,235.00
             197.00,235.00 210.00,274.00 210.00,274.00
             210.00,274.00 228.69,246.00 228.69,246.00
             228.69,246.00 256.58,203.00 256.58,203.00
             260.53,196.68 267.92,180.30 276.99,183.60
             281.54,185.26 285.99,193.83 288.58,198.00
             288.58,198.00 312.00,235.00 312.00,235.00 Z" />
</svg>
