<?xml version="1.0" encoding="UTF-8" standalone="no"?>
<!DOCTYPE svg PUBLIC "-//W3C//DTD SVG 20010904//EN"
              "http://www.w3.org/TR/2001/REC-SVG-20010904/DTD/svg10.dtd">

<svg xmlns="http://www.w3.org/2000/svg"
     width="3.48333in" height="3.26667in"
     viewBox="0 0 1045 980">
  <path id="Auswahl"
        fill="#333" stroke="#333" stroke-width="1"
        d="M 2.00,0.00
           C 2.00,0.00 306.00,0.00 306.00,0.00
             306.00,0.00 312.70,0.57 312.70,0.57
             312.70,0.57 328.63,20.00 328.63,20.00
             328.63,20.00 375.87,83.00 375.87,83.00
             375.87,83.00 510.37,263.00 510.37,263.00
             510.37,263.00 553.87,321.00 553.87,321.00
             553.87,321.00 577.00,353.00 577.00,353.00
             577.00,353.00 606.17,323.00 606.17,323.00
             606.17,323.00 657.09,268.00 657.09,268.00
             657.09,268.00 824.91,87.00 824.91,87.00
             824.91,87.00 885.96,21.00 885.96,21.00
             885.96,21.00 898.91,7.00 898.91,7.00
             898.91,7.00 906.04,0.60 906.04,0.60
             906.04,0.60 913.00,0.00 913.00,0.00
             913.00,0.00 997.00,0.00 997.00,0.00
             993.42,6.67 979.01,20.54 973.17,27.00
             973.17,27.00 911.17,94.00 911.17,94.00
             911.17,94.00 837.09,174.00 837.09,174.00
             837.09,174.00 768.91,248.00 768.91,248.00
             768.91,248.00 731.91,288.00 731.91,288.00
             731.91,288.00 709.58,312.00 709.58,312.00
             709.58,312.00 675.09,349.00 675.09,349.00
             675.09,349.00 642.00,385.00 642.00,385.00
             642.00,385.00 625.17,403.00 625.17,403.00
             623.20,405.24 620.76,407.79 621.73,411.00
             622.36,413.11 629.80,422.57 631.63,425.00
             631.63,425.00 654.13,455.00 654.13,455.00
             654.13,455.00 731.13,558.00 731.13,558.00
             731.13,558.00 941.37,839.00 941.37,839.00
             941.37,839.00 1009.37,930.00 1009.37,930.00
             1009.37,930.00 1031.87,960.00 1031.87,960.00
             1036.37,966.00 1041.72,972.31 1045.00,979.00
             1045.00,979.00 741.00,979.00 741.00,979.00
             741.00,979.00 734.30,978.43 734.30,978.43
             734.30,978.43 728.13,972.00 728.13,972.00
             728.13,972.00 717.63,958.00 717.63,958.00
             717.63,958.00 666.87,890.00 666.87,890.00
             666.87,890.00 518.13,691.00 518.13,691.00
             518.13,691.00 471.63,629.00 471.63,629.00
             471.63,629.00 448.00,596.00 448.00,596.00
             448.00,596.00 419.91,625.00 419.91,625.00
             419.91,625.00 359.91,690.00 359.91,690.00
             359.91,690.00 241.09,818.00 241.09,818.00
             241.09,818.00 178.04,886.00 178.04,886.00
             178.04,886.00 159.91,906.00 159.91,906.00
             159.91,906.00 114.17,955.00 114.17,955.00
             114.17,955.00 101.17,969.00 101.17,969.00
             101.17,969.00 92.00,977.98 92.00,977.98
             92.00,977.98 84.00,979.00 84.00,979.00
             84.00,979.00 0.00,979.00 0.00,979.00
             0.00,979.00 41.91,933.00 41.91,933.00
             41.91,933.00 103.91,866.00 103.91,866.00
             103.91,866.00 253.91,704.00 253.91,704.00
             253.91,704.00 298.04,656.00 298.04,656.00
             298.04,656.00 345.09,605.00 345.09,605.00
             345.09,605.00 377.72,570.00 377.72,570.00
             377.72,570.00 397.01,549.00 397.01,549.00
             399.09,546.86 403.46,543.12 403.54,540.00
             403.61,537.13 398.67,531.40 396.87,529.00
             396.87,529.00 376.63,502.00 376.63,502.00
             376.63,502.00 298.87,398.00 298.87,398.00
             298.87,398.00 100.63,133.00 100.63,133.00
             100.63,133.00 35.63,46.00 35.63,46.00
             35.63,46.00 2.00,0.00 2.00,0.00 Z
           M 910.00,912.00
           C 907.33,905.73 896.96,893.12 892.37,887.00
             892.37,887.00 860.37,844.00 860.37,844.00
             860.37,844.00 756.37,705.00 756.37,705.00
             756.37,705.00 427.87,266.00 427.87,266.00
             427.87,266.00 314.87,115.00 314.87,115.00
             314.87,115.00 289.63,81.00 289.63,81.00
             282.69,71.75 282.66,68.02 272.00,68.00
             272.00,68.00 138.00,68.00 138.00,68.00
             140.66,74.25 150.17,86.06 154.63,92.00
             154.63,92.00 187.63,136.00 187.63,136.00
             187.63,136.00 291.63,275.00 291.63,275.00
             291.63,275.00 620.63,715.00 620.63,715.00
             620.63,715.00 732.87,865.00 732.87,865.00
             732.87,865.00 758.37,899.00 758.37,899.00
             765.31,908.25 765.34,911.98 776.00,912.00
             776.00,912.00 910.00,912.00 910.00,912.00 Z" />
</svg>
