<?xml version="1.0" encoding="UTF-8" standalone="no"?>
<!DOCTYPE svg PUBLIC "-//W3C//DTD SVG 20010904//EN"
              "http://www.w3.org/TR/2001/REC-SVG-20010904/DTD/svg10.dtd">

<svg xmlns="http://www.w3.org/2000/svg"
     width="6.11111in" height="7.11111in"
     viewBox="0 0 440 512">
  <path id="Auswahl"
        fill="#EA967C" stroke="#EA967C" stroke-width="1"
        d="M 212.00,0.21
           C 212.00,0.21 223.00,0.21 223.00,0.21
             232.59,0.01 241.97,2.19 251.00,5.34
             259.24,8.22 266.20,12.59 273.00,18.00
             318.36,54.12 310.64,124.33 261.00,152.57
             245.62,161.33 232.10,162.20 215.00,162.00
             207.61,161.91 197.88,159.50 191.00,156.80
             147.68,139.77 129.34,91.21 146.45,49.00
             158.00,20.51 182.72,5.22 212.00,0.21 Z
           M 154.00,312.00
           C 154.00,312.00 131.00,328.88 131.00,328.88
             131.00,328.88 77.00,368.15 77.00,368.15
             62.41,378.79 51.89,390.22 33.00,390.00
             13.80,389.77 0.59,373.63 1.01,355.00
             1.46,335.77 14.24,328.81 28.00,318.63
             28.00,318.63 101.00,265.58 101.00,265.58
             108.79,259.81 111.32,249.70 114.80,241.00
             114.80,241.00 129.99,204.00 129.99,204.00
             133.24,196.11 135.77,187.61 141.62,181.17
             149.37,172.65 158.88,170.02 170.00,170.00
             170.00,170.00 270.00,170.00 270.00,170.00
             286.61,170.03 298.23,176.44 305.14,192.00
             305.14,192.00 324.80,240.00 324.80,240.00
             326.87,245.18 331.86,259.07 335.27,262.54
             335.27,262.54 358.00,279.37 358.00,279.37
             358.00,279.37 410.00,317.15 410.00,317.15
             426.01,328.82 439.50,335.74 438.99,358.00
             438.54,377.52 422.81,390.21 404.00,390.00
             388.74,389.82 375.84,377.60 364.00,368.88
             364.00,368.88 309.00,328.88 309.00,328.88
             309.00,328.88 286.00,312.00 286.00,312.00
             286.00,312.00 288.85,336.00 288.85,336.00
             290.94,341.15 307.14,356.03 311.99,361.00
             311.99,361.00 321.04,371.00 321.04,371.00
             321.04,371.00 339.96,390.00 339.96,390.00
             339.96,390.00 362.00,413.00 362.00,413.00
             362.00,413.00 373.09,425.00 373.09,425.00
             373.09,425.00 382.53,435.00 382.53,435.00
             390.63,444.98 394.38,458.24 392.71,471.00
             389.01,499.38 366.57,511.96 340.00,512.00
             340.00,512.00 176.00,512.00 176.00,512.00
             164.74,511.98 154.98,510.25 146.04,502.88
             124.49,485.13 125.10,449.03 148.00,432.63
             156.22,426.75 167.11,425.02 177.00,425.00
             177.00,425.00 225.00,425.00 225.00,425.00
             232.01,425.00 244.76,425.77 251.00,424.00
             240.94,419.71 237.83,412.03 219.00,412.00
             219.00,412.00 187.00,412.00 187.00,412.00
             187.00,412.00 169.00,412.00 169.00,412.00
             153.37,412.19 139.09,420.84 129.68,433.00
             126.18,437.52 123.88,441.70 121.81,447.00
             118.68,455.02 118.06,458.48 117.74,467.00
             117.31,478.75 120.67,491.36 127.44,501.00
             127.44,501.00 136.00,512.00 136.00,512.00
             136.00,512.00 93.00,512.00 93.00,512.00
             67.63,511.96 45.31,493.27 45.00,467.00
             44.70,440.69 59.79,430.21 77.00,413.00
             77.00,413.00 127.00,362.00 127.00,362.00
             127.00,362.00 143.00,346.00 143.00,346.00
             145.24,343.76 149.64,339.68 150.98,337.00
             152.23,334.50 151.91,331.70 152.17,329.00
             152.17,329.00 154.00,312.00 154.00,312.00 Z" />
</svg>
