<?xml version="1.0" encoding="UTF-8" standalone="no"?>
<!DOCTYPE svg PUBLIC "-//W3C//DTD SVG 20010904//EN"
              "http://www.w3.org/TR/2001/REC-SVG-20010904/DTD/svg10.dtd">

<svg xmlns="http://www.w3.org/2000/svg"
     width="3.57333in" height="2.8in"
     viewBox="0 0 1072 840">
  <path id="Auswahl"
        fill="rgb(237, 200, 148, 0.6)" stroke="rgb(237, 200, 148, 0.6)" stroke-width="1"
        d="M 241.00,0.00
           C 255.10,6.54 261.67,19.35 270.68,31.00
             279.05,41.82 286.81,46.85 287.00,62.00
             287.14,74.29 285.59,74.74 283.21,86.00
             283.21,86.00 280.75,101.00 280.75,101.00
             280.08,105.18 278.44,115.27 279.51,119.00
             280.18,121.36 289.40,136.94 291.21,138.61
             294.39,141.55 302.81,144.99 307.00,146.86
             307.00,146.86 335.00,159.00 335.00,159.00
             335.00,159.00 331.53,149.00 331.53,149.00
             331.53,149.00 330.42,140.09 330.42,140.09
             329.35,137.05 327.74,136.86 326.44,131.99
             323.66,121.53 324.73,117.30 323.83,108.00
             323.83,108.00 320.96,85.00 320.96,85.00
             320.75,80.52 319.31,75.27 317.78,71.00
             317.08,68.38 315.79,66.05 317.78,63.52
             318.50,62.34 320.74,60.84 322.00,60.07
             330.92,54.65 336.53,59.95 345.00,61.05
             345.00,61.05 372.00,65.04 372.00,65.04
             378.69,67.02 380.48,68.70 386.00,72.41
             397.48,80.13 403.82,86.41 404.00,101.00
             404.25,122.41 404.93,141.85 396.13,162.00
             391.95,171.55 388.31,171.91 385.00,178.00
             393.65,174.64 405.44,161.78 415.96,166.61
             422.59,169.65 425.67,183.27 425.96,190.00
             426.09,193.00 425.55,198.29 427.02,200.79
             429.16,204.42 434.15,205.59 438.00,206.00
             433.28,193.07 437.64,186.29 439.78,174.00
             440.14,170.32 439.96,167.64 439.78,164.00
             439.78,164.00 444.08,135.00 444.08,135.00
             444.08,135.00 444.08,120.00 444.08,120.00
             444.08,120.00 445.66,108.00 445.66,108.00
             445.66,108.00 445.00,99.00 445.00,99.00
             445.00,99.00 456.00,101.35 456.00,101.35
             456.00,101.35 469.00,99.09 469.00,99.09
             474.12,98.78 476.23,100.03 480.42,100.16
             492.46,100.55 492.94,106.20 498.21,115.00
             498.21,115.00 503.27,122.00 503.27,122.00
             511.47,133.16 519.54,143.56 525.75,156.00
             527.77,160.04 531.15,166.56 531.59,171.00
             532.20,177.26 528.61,186.03 527.00,192.22
             527.00,192.22 541.00,192.22 541.00,192.22
             553.58,192.43 565.53,191.10 578.00,194.04
             593.57,197.71 596.56,201.23 610.00,207.74
             621.25,213.19 628.63,215.51 637.91,225.04
             643.61,230.88 653.22,246.48 657.54,254.00
             659.68,257.73 660.96,262.98 663.42,265.67
             667.18,269.80 674.17,271.76 678.33,276.21
             678.33,276.21 687.90,289.00 687.90,289.00
             687.90,289.00 699.11,303.00 699.11,303.00
             699.11,303.00 710.00,319.00 710.00,319.00
             710.00,319.00 725.11,344.00 725.11,344.00
             725.11,344.00 732.31,359.00 732.31,359.00
             737.82,369.16 741.85,370.34 742.00,383.00
             742.20,400.53 737.49,410.98 724.00,422.57
             717.36,428.28 714.94,429.58 707.00,433.00
             707.00,433.00 721.00,449.00 721.00,449.00
             721.00,449.00 750.00,477.00 750.00,477.00
             754.48,467.44 753.17,460.69 756.36,451.00
             756.36,451.00 768.45,424.00 768.45,424.00
             768.45,424.00 769.28,418.00 769.28,418.00
             770.90,405.59 769.68,407.94 766.44,397.00
             766.44,397.00 762.00,382.00 762.00,382.00
             769.12,379.65 783.49,377.84 791.00,378.01
             795.60,378.12 806.09,380.52 811.00,381.65
             815.04,382.58 823.60,384.41 827.00,385.90
             837.01,390.29 845.79,397.16 855.00,402.89
             867.67,410.76 870.28,410.17 881.00,422.58
             883.54,425.52 885.33,427.44 887.10,431.00
             891.10,439.09 890.33,441.86 891.81,446.00
             894.06,452.32 896.25,453.04 895.96,461.00
             895.62,470.11 891.84,468.39 892.00,483.00
             892.11,492.30 896.43,503.46 893.39,512.00
             891.58,517.08 885.94,522.25 882.00,525.91
             878.72,528.97 873.87,532.90 870.00,535.12
             865.30,537.82 861.88,538.58 857.00,540.42
             846.16,544.51 840.05,547.74 828.00,548.00
             829.75,553.97 836.45,560.05 841.04,564.28
             841.04,564.28 867.00,588.00 867.00,588.00
             870.07,590.81 879.47,599.62 883.00,600.42
             883.00,600.42 901.00,598.04 901.00,598.04
             901.00,598.04 919.00,599.00 919.00,599.00
             915.96,585.66 911.02,574.06 911.00,560.00
             911.00,560.00 910.11,543.91 910.11,543.91
             909.75,529.90 907.06,525.28 901.00,513.00
             908.85,512.29 909.86,509.59 925.00,508.17
             925.00,508.17 947.00,509.00 947.00,509.00
             959.83,509.02 972.71,512.32 984.72,516.61
             989.73,518.40 992.34,518.07 997.83,521.38
             1000.43,522.95 1004.31,526.81 1006.61,529.01
             1009.57,531.85 1020.63,543.03 1021.42,546.28
             1022.10,549.03 1017.86,561.48 1016.86,565.00
             1016.86,565.00 1003.28,613.00 1003.28,613.00
             1002.34,616.15 999.45,624.10 999.88,627.00
             1000.22,629.29 1002.48,632.44 1003.44,635.00
             1005.12,639.47 1007.06,650.52 1005.40,655.00
             1004.54,657.33 1002.84,659.08 1000.98,660.67
             998.75,662.59 996.60,663.72 994.00,665.00
             1001.47,675.34 1012.11,678.67 1019.27,686.18
             1023.14,690.25 1025.87,694.31 1020.00,698.00
             1020.00,698.00 1020.00,701.00 1020.00,701.00
             1020.00,701.00 1052.00,720.34 1052.00,720.34
             1058.76,724.71 1063.72,728.79 1072.00,729.00
             1072.00,729.00 1072.00,840.00 1072.00,840.00
             1072.00,840.00 948.00,840.00 948.00,840.00
             946.89,837.31 944.68,837.43 942.00,837.00
             942.00,837.00 942.00,835.00 942.00,835.00
             954.78,833.20 958.66,828.74 970.00,825.89
             973.55,825.00 981.01,824.12 983.41,821.49
             986.16,818.47 984.57,812.94 989.32,804.00
             995.23,792.88 1003.64,785.04 1006.16,781.00
             1009.58,775.53 1008.44,771.73 1017.95,761.00
             1022.54,755.83 1034.74,743.88 1040.00,739.90
             1041.96,738.41 1048.84,734.74 1048.38,732.10
             1048.08,730.37 1045.36,728.86 1043.99,728.00
             1043.99,728.00 1031.00,720.20 1031.00,720.20
             1031.00,720.20 1004.00,704.07 1004.00,704.07
             999.74,702.34 995.46,703.49 990.00,701.20
             984.17,698.76 981.72,695.25 974.00,693.00
             974.72,702.91 968.95,705.13 961.00,708.77
             961.00,708.77 916.00,728.92 916.00,728.92
             916.00,728.92 893.00,742.69 893.00,742.69
             893.00,742.69 875.00,750.66 875.00,750.66
             866.94,754.28 863.40,756.89 854.00,757.83
             842.95,758.94 839.43,756.70 830.00,752.44
             825.56,750.43 821.12,748.55 817.00,745.91
             803.57,737.30 789.46,720.92 781.69,707.00
             778.50,701.29 774.00,696.27 772.00,690.00
             772.00,690.00 743.00,696.00 743.00,696.00
             738.96,678.74 727.21,660.49 727.00,643.00
             726.82,627.26 726.34,619.93 729.31,604.00
             729.31,604.00 731.92,592.00 731.92,592.00
             734.29,577.91 731.61,577.43 739.00,563.00
             739.00,563.00 700.00,569.45 700.00,569.45
             700.00,569.45 678.00,574.00 678.00,574.00
             678.00,574.00 682.72,601.00 682.72,601.00
             684.57,614.07 684.62,633.83 683.23,647.00
             682.43,654.61 682.03,661.88 679.00,669.00
             676.29,668.50 672.41,667.97 670.04,666.69
             658.96,660.71 655.42,644.18 652.63,633.00
             650.46,624.32 648.13,615.01 647.83,606.04
             647.70,602.20 648.31,601.89 647.00,598.00
             646.19,601.46 644.78,604.95 642.93,608.00
             638.43,615.44 628.65,620.07 620.00,618.67
             620.00,618.67 611.00,615.91 611.00,615.91
             611.00,615.91 601.00,613.25 601.00,613.25
             598.35,612.38 592.49,609.22 590.58,609.22
             588.92,609.21 585.60,610.74 584.00,611.42
             580.06,613.12 570.03,617.62 567.30,620.39
             564.57,623.16 563.33,630.05 562.00,634.00
             556.73,649.62 555.52,653.70 552.58,670.00
             547.96,695.60 539.29,711.78 526.58,734.00
             522.30,741.48 519.91,750.48 513.00,756.00
             513.00,756.00 521.43,739.28 521.43,739.28
             521.43,739.28 525.00,732.00 525.00,732.00
             524.42,726.00 530.03,717.49 531.96,711.00
             531.96,711.00 537.09,693.00 537.09,693.00
             541.75,679.92 547.16,667.73 550.00,654.00
             550.00,654.00 553.46,636.00 553.46,636.00
             553.99,634.00 554.99,630.31 553.46,628.77
             551.71,627.16 548.81,628.26 547.00,628.77
             542.16,630.40 537.54,632.98 533.00,635.25
             533.00,635.25 485.00,660.26 485.00,660.26
             485.00,660.26 475.00,666.00 475.00,666.00
             477.55,676.51 475.41,686.27 469.07,695.00
             466.12,699.06 460.31,704.38 458.56,708.01
             458.56,708.01 452.12,732.00 452.12,732.00
             449.60,741.52 445.43,752.09 441.22,761.00
             437.45,768.98 431.23,782.02 422.00,784.00
             423.30,778.65 422.94,777.29 423.00,772.00
             423.10,763.66 426.25,747.65 429.46,740.00
             433.61,730.13 439.71,724.99 445.99,717.00
             445.99,717.00 456.62,701.77 456.62,701.77
             457.96,700.77 458.17,701.19 459.00,701.00
             459.00,701.00 458.00,697.00 458.00,697.00
             460.73,695.88 461.09,692.66 462.00,690.00
             464.23,683.49 468.30,677.00 468.00,670.10
             468.00,670.10 462.91,670.10 462.91,670.10
             459.67,670.95 446.82,678.48 444.13,680.76
             440.06,684.20 437.63,691.90 430.00,690.00
             430.00,690.00 432.00,689.00 432.00,689.00
             432.00,689.00 422.00,689.00 422.00,689.00
             422.00,689.00 433.00,680.87 433.00,680.87
             436.03,679.24 437.54,679.87 441.00,678.40
             441.00,678.40 454.00,671.26 454.00,671.26
             459.90,668.21 465.55,667.51 465.00,660.00
             475.94,660.81 482.60,655.95 492.00,651.25
             492.00,651.25 537.00,628.00 537.00,628.00
             537.00,628.00 524.00,626.00 524.00,626.00
             512.90,623.83 497.24,619.31 487.00,614.69
             469.38,606.75 456.02,592.44 443.70,578.00
             443.70,578.00 428.79,561.00 428.79,561.00
             428.79,561.00 423.00,551.00 423.00,551.00
             425.85,550.08 427.95,549.31 431.00,549.10
             436.66,548.71 454.90,552.90 461.00,554.58
             461.00,554.58 518.00,572.56 518.00,572.56
             529.59,576.79 539.66,579.36 550.00,586.79
             562.55,595.80 562.41,603.76 558.00,617.00
             558.00,617.00 584.00,606.00 584.00,606.00
             568.11,596.95 572.48,600.00 559.96,587.00
             554.85,581.70 550.10,577.64 546.36,571.00
             546.36,571.00 542.55,563.00 542.55,563.00
             540.57,559.66 536.67,554.99 536.60,551.00
             536.50,545.81 541.72,538.63 545.09,535.00
             548.43,531.40 552.56,527.25 557.09,525.22
             570.53,519.18 595.07,525.48 608.00,531.31
             620.33,536.87 635.13,547.17 640.54,560.00
             643.98,568.18 642.03,570.07 644.00,577.00
             644.00,570.93 643.20,553.69 645.43,549.02
             648.17,543.27 658.25,538.18 663.61,543.31
             667.31,546.85 674.53,564.54 676.00,570.00
             676.00,570.00 723.00,560.44 723.00,560.44
             727.25,559.75 739.06,559.35 741.91,557.40
             744.99,555.30 754.59,542.62 754.83,539.00
             755.03,536.20 752.22,532.17 752.00,523.00
             752.00,523.00 748.64,496.00 748.64,496.00
             748.64,493.90 749.13,490.81 748.64,489.00
             747.34,485.50 737.13,476.13 734.00,473.00
             734.00,473.00 694.00,436.00 694.00,436.00
             694.00,436.00 691.00,439.00 691.00,439.00
             691.00,439.00 691.00,435.00 691.00,435.00
             685.10,438.48 683.81,442.89 679.54,447.99
             674.96,453.43 666.94,459.61 660.00,461.65
             652.05,463.69 639.06,463.53 631.00,461.65
             623.38,460.14 619.14,456.29 611.00,459.09
             595.59,464.39 583.63,469.47 570.00,478.67
             560.29,485.22 555.84,494.03 543.00,494.91
             534.20,495.51 529.56,491.69 522.00,488.10
             522.00,488.10 503.00,481.00 503.00,481.00
             503.00,481.00 503.00,479.00 503.00,479.00
             512.22,474.88 512.62,472.44 520.00,467.47
             520.00,467.47 532.00,461.31 532.00,461.31
             532.00,461.31 553.00,445.45 553.00,445.45
             564.27,438.73 567.96,438.41 579.00,434.08
             583.08,432.48 584.29,431.39 589.00,430.24
             589.00,430.24 603.00,428.34 603.00,428.34
             603.00,428.34 622.00,424.16 622.00,424.16
             637.21,422.16 651.17,420.11 666.00,425.00
             669.04,426.00 679.98,430.71 682.30,428.31
             684.21,426.34 682.05,422.80 680.89,421.00
             678.31,416.97 671.78,409.89 668.42,406.00
             668.42,406.00 642.04,378.00 642.04,378.00
             642.04,378.00 625.00,360.00 625.00,360.00
             621.93,356.93 611.43,345.42 608.00,344.65
             605.76,344.15 600.25,346.53 598.00,347.45
             594.42,348.93 583.88,354.72 581.51,357.38
             578.25,361.02 580.29,363.52 570.83,372.25
             567.06,375.72 556.66,383.71 552.00,385.20
             542.73,388.17 529.82,386.56 521.00,382.65
             521.00,382.65 512.00,377.89 512.00,377.89
             508.17,376.08 501.26,373.56 498.41,370.61
             497.03,369.17 492.94,361.20 492.00,359.00
             492.00,359.00 499.00,359.00 499.00,359.00
             494.14,357.13 487.10,345.66 484.34,341.00
             474.02,323.56 469.77,303.05 470.00,283.00
             470.07,277.72 470.25,269.78 472.00,265.00
             472.00,265.00 488.00,283.00 488.00,283.00
             488.00,283.00 486.00,251.00 486.00,251.00
             481.55,253.42 477.60,258.29 473.42,261.56
             473.42,261.56 467.28,265.51 467.28,265.51
             458.90,272.41 448.02,288.06 443.26,298.00
             443.26,298.00 438.13,312.00 438.13,312.00
             435.25,318.70 433.04,320.35 430.72,328.00
             430.72,328.00 424.21,353.00 424.21,353.00
             424.21,353.00 421.00,369.00 421.00,369.00
             421.00,369.00 411.00,364.00 411.00,364.00
             411.00,364.00 408.00,367.00 408.00,367.00
             408.00,367.00 412.26,355.00 412.26,355.00
             421.67,326.57 422.24,323.45 438.20,297.00
             438.20,297.00 453.52,269.00 453.52,269.00
             454.48,267.15 459.28,257.37 459.33,256.00
             459.48,251.76 453.56,248.97 448.62,241.00
             445.83,236.51 443.13,231.12 441.76,226.00
             440.79,222.41 440.63,217.07 438.42,214.21
             436.28,211.46 427.79,207.71 424.00,205.00
             419.63,217.17 412.22,217.56 402.00,223.60
             402.00,223.60 366.00,244.13 366.00,244.13
             358.29,248.52 352.00,251.02 345.00,257.18
             331.79,268.80 332.02,274.79 314.00,288.65
             310.14,291.62 308.65,293.18 304.00,295.00
             304.35,288.76 298.42,278.64 298.04,270.00
             297.88,266.41 298.91,254.99 300.45,252.04
             302.37,248.38 308.64,244.02 312.00,241.25
             312.00,241.25 341.00,218.00 341.00,218.00
             343.76,215.63 350.77,210.55 352.49,207.96
             354.22,204.94 353.18,202.21 352.49,199.00
             351.45,192.34 352.02,189.87 349.13,183.00
             347.52,179.19 343.67,171.05 340.79,168.39
             337.07,164.95 323.28,159.66 318.00,157.55
             308.81,153.87 295.17,147.15 286.00,145.00
             283.53,155.39 273.23,161.50 264.00,165.69
             251.74,171.26 235.60,171.91 222.42,175.86
             222.42,175.86 210.00,182.45 210.00,182.45
             204.83,184.42 201.82,184.38 197.00,185.52
             197.00,185.52 187.00,189.05 187.00,189.05
             187.00,189.05 166.00,197.77 166.00,197.77
             162.27,199.47 158.15,202.04 154.00,201.00
             154.00,201.00 199.00,182.28 199.00,182.28
             203.36,180.40 217.97,174.05 220.96,171.61
             225.99,167.51 228.36,161.57 231.30,156.00
             236.97,145.26 241.80,136.00 253.00,130.00
             253.00,130.00 253.00,128.00 253.00,128.00
             253.00,128.00 234.00,121.00 234.00,121.00
             230.06,126.63 218.81,121.60 214.00,119.00
             218.00,112.32 220.41,111.71 228.00,112.02
             229.71,112.09 231.26,112.14 232.79,113.02
             235.43,114.54 235.91,117.15 240.04,119.59
             240.04,119.59 254.00,125.56 254.00,125.56
             261.78,128.26 263.08,124.80 273.00,129.00
             273.00,129.00 273.00,122.00 273.00,122.00
             273.00,122.00 276.00,130.00 276.00,130.00
             276.80,120.39 272.31,114.03 267.86,106.00
             267.86,106.00 259.91,90.00 259.91,90.00
             256.04,83.44 251.11,77.26 248.55,70.00
             246.70,64.76 246.40,56.63 245.83,51.00
             245.83,51.00 244.00,27.00 244.00,27.00
             243.98,16.21 243.75,10.56 241.00,0.00 Z
           M 501.00,359.00
           C 501.00,359.00 500.00,360.00 500.00,360.00
             500.00,360.00 504.00,360.00 504.00,360.00
             504.00,360.00 501.00,359.00 501.00,359.00 Z
           M 645.00,587.00
           C 644.46,590.78 644.86,594.56 648.00,597.00
             648.00,597.00 647.00,593.00 647.00,593.00
             647.00,593.00 649.00,594.00 649.00,594.00
             649.00,594.00 650.00,593.00 650.00,593.00
             650.00,593.00 648.00,589.00 648.00,589.00
             648.00,589.00 646.00,591.00 646.00,591.00
             646.00,591.00 645.00,587.00 645.00,587.00 Z
           M 528.00,728.00
           C 528.00,728.00 527.00,728.00 527.00,728.00
             527.00,728.00 528.00,729.00 528.00,729.00
             528.00,729.00 528.00,728.00 528.00,728.00 Z
           M 800.00,840.00
           C 800.00,840.00 754.00,840.00 754.00,840.00
             754.00,840.00 720.00,840.00 720.00,840.00
             717.42,839.97 713.21,840.05 710.91,838.89
             703.61,835.22 698.18,825.34 695.31,818.00
             694.39,815.67 692.63,812.41 692.60,810.00
             692.55,806.31 695.39,801.72 698.10,799.39
             701.31,796.63 705.05,795.70 709.00,794.58
             726.48,789.63 729.87,792.16 746.00,797.91
             761.36,803.39 770.13,805.60 783.00,816.95
             791.29,824.26 798.71,827.84 800.00,840.00 Z
           M 842.00,840.00
           C 841.02,834.22 841.37,827.39 843.92,822.00
             846.36,816.84 851.60,812.33 856.00,808.81
             868.30,798.97 881.24,791.83 897.00,798.68
             912.89,805.60 912.41,820.65 918.00,834.00
             918.00,828.03 916.96,820.23 919.96,815.00
             919.96,815.00 919.96,828.00 919.96,828.00
             919.96,828.00 919.00,840.00 919.00,840.00
             919.00,840.00 842.00,840.00 842.00,840.00 Z" />
</svg>
